<?xml version="1.0" standalone="no"?>
<!DOCTYPE svg PUBLIC "-//W3C//DTD SVG 20010904//EN"
 "http://www.w3.org/TR/2001/REC-SVG-20010904/DTD/svg10.dtd">
<svg version="1.0" xmlns="http://www.w3.org/2000/svg"
 width="512.000000pt" height="512.000000pt" viewBox="0 0 512.000000 512.000000"
 preserveAspectRatio="xMidYMid meet">

<g transform="translate(0.000000,512.000000) scale(0.100000,-0.100000)"
fill="#5c3c84" stroke="none">
<path d="M713 5105 c-341 -62 -596 -298 -685 -635 l-23 -85 0 -1825 0 -1825
23 -85 c83 -313 309 -539 622 -622 l85 -23 1825 0 1825 0 85 23 c313 83 539
309 622 622 l23 85 0 1825 0 1825 -23 85 c-82 311 -303 533 -617 622 l-80 23
-1805 2 c-1450 1 -1819 -1 -1877 -12z m2412 -1122 c266 -61 441 -182 533 -368
45 -91 62 -167 69 -305 6 -154 -10 -241 -66 -355 -63 -126 -174 -236 -311
-305 l-45 -23 70 -22 c227 -69 390 -241 456 -480 41 -152 41 -380 -2 -520 -37
-122 -85 -202 -179 -295 -123 -123 -253 -191 -465 -245 -161 -41 -257 -45
-1045 -45 l-750 0 0 1495 0 1496 823 -4 c789 -3 826 -4 912 -24z"/>
<path d="M1920 3171 l0 -411 463 0 c485 0 506 2 607 47 71 32 143 103 176 175
28 60 29 69 29 203 0 139 0 141 -33 208 -40 81 -94 126 -192 159 -63 22 -80
22 -557 26 l-493 3 0 -410z"/>
<path d="M1920 1916 l0 -466 498 0 c535 0 579 4 685 53 169 78 261 279 229
498 -26 181 -120 293 -295 352 -59 21 -84 22 -589 25 l-528 3 0 -465z"/>
</g>
</svg>
