<svg id="svg" version="1.1" xmlns="http://www.w3.org/2000/svg" xmlns:xlink="http://www.w3.org/1999/xlink" width="400" height="400" viewBox="0, 0, 400,400"><g id="svgg"><path id="path0" d="M89.909 74.300 C 89.751 74.646,90.147 82.237,90.793 91.200 C 91.039 94.610,91.398 99.920,91.591 103.000 C 91.784 106.080,92.069 110.000,92.224 111.710 L 92.507 114.821 177.657 114.789 C 224.489 114.771,263.007 114.881,263.251 115.031 C 263.540 115.210,263.598 115.950,263.419 117.153 C 263.267 118.169,262.971 121.430,262.761 124.400 C 262.228 131.921,261.629 140.139,261.199 145.800 C 260.999 148.440,260.714 152.631,260.566 155.114 C 260.353 158.678,260.160 159.700,259.648 159.970 C 259.292 160.159,245.410 160.423,228.800 160.558 C 196.255 160.821,145.992 161.391,115.900 161.838 L 97.200 162.115 97.200 164.050 C 97.200 165.114,97.375 167.203,97.588 168.693 C 97.801 170.182,98.164 173.380,98.395 175.800 C 98.625 178.220,98.996 181.820,99.218 183.800 C 99.689 187.986,101.202 202.497,101.201 202.818 C 101.200 202.938,136.075 203.028,178.700 203.018 L 256.200 203.000 256.142 204.800 C 256.088 206.481,255.851 208.773,254.796 217.800 C 254.565 219.780,254.214 223.020,254.018 225.000 C 253.821 226.980,253.472 230.220,253.241 232.200 C 253.011 234.180,252.564 238.320,252.248 241.400 C 249.873 264.543,249.802 264.919,247.723 265.318 C 247.105 265.437,245.970 265.714,245.200 265.934 C 244.430 266.154,241.280 266.995,238.200 267.804 C 235.120 268.612,232.060 269.425,231.400 269.609 C 230.740 269.794,228.760 270.330,227.000 270.800 C 225.240 271.270,223.170 271.835,222.400 272.054 C 221.630 272.274,220.370 272.609,219.600 272.800 C 218.830 272.991,217.480 273.351,216.600 273.600 C 215.720 273.849,214.370 274.209,213.600 274.400 C 212.830 274.591,211.480 274.951,210.600 275.201 C 209.720 275.451,208.550 275.747,208.000 275.858 C 207.450 275.969,206.640 276.213,206.200 276.400 C 205.760 276.587,204.950 276.831,204.400 276.942 C 203.850 277.053,202.682 277.328,201.805 277.551 C 200.128 277.979,196.928 277.731,196.565 277.144 C 196.448 276.955,195.834 276.800,195.200 276.800 C 194.566 276.800,193.948 276.640,193.827 276.444 C 193.706 276.249,193.021 275.991,192.304 275.873 C 190.141 275.515,188.644 275.158,187.800 274.800 C 187.360 274.613,186.550 274.369,186.000 274.258 C 185.450 274.147,184.280 273.851,183.400 273.601 C 182.520 273.351,181.170 272.991,180.400 272.800 C 179.630 272.609,178.370 272.276,177.600 272.060 C 176.830 271.844,174.490 271.217,172.400 270.667 C 170.310 270.117,167.160 269.276,165.400 268.798 C 161.249 267.671,156.808 266.494,153.800 265.724 C 150.456 264.869,150.311 264.657,149.949 260.116 C 149.778 257.962,149.449 254.175,149.219 251.700 C 148.340 242.253,147.971 238.045,147.619 233.441 C 147.377 230.277,147.078 228.568,146.727 228.345 C 145.759 227.727,103.382 228.115,103.514 228.741 C 103.576 229.038,103.819 231.828,104.054 234.941 C 104.491 240.727,104.831 244.684,105.592 252.800 C 105.829 255.330,106.195 259.380,106.405 261.800 C 106.615 264.220,106.966 268.180,107.186 270.600 C 107.405 273.020,107.775 277.160,108.008 279.800 C 108.729 287.975,109.172 292.892,109.435 295.662 C 109.652 297.941,109.811 298.354,110.544 298.534 C 111.015 298.650,112.030 298.920,112.800 299.135 C 115.815 299.976,120.706 301.313,122.800 301.869 C 124.010 302.189,125.540 302.610,126.200 302.803 C 129.634 303.809,132.533 304.620,136.200 305.600 C 137.960 306.070,139.940 306.613,140.600 306.805 C 144.235 307.865,145.117 308.093,146.304 308.281 C 147.021 308.395,147.706 308.649,147.827 308.844 C 147.948 309.040,148.566 309.200,149.200 309.200 C 149.834 309.200,150.464 309.380,150.600 309.600 C 150.736 309.820,151.229 310.000,151.695 310.000 C 152.494 310.000,154.405 310.520,156.200 311.225 C 156.640 311.398,157.450 311.631,158.000 311.742 C 158.920 311.928,159.546 312.097,163.300 313.172 C 164.015 313.377,166.040 313.930,167.800 314.400 C 169.560 314.870,171.540 315.405,172.200 315.588 C 172.860 315.771,175.110 316.386,177.200 316.956 C 179.290 317.526,182.350 318.370,184.000 318.832 C 189.393 320.342,189.784 320.449,191.200 320.800 C 191.970 320.991,193.230 321.329,194.000 321.551 C 200.117 323.316,200.271 323.344,201.503 322.894 C 202.106 322.673,203.410 322.271,204.400 322.000 C 205.390 321.729,206.650 321.366,207.200 321.194 C 207.750 321.022,209.640 320.502,211.400 320.040 C 214.471 319.234,226.072 316.076,229.400 315.141 C 231.045 314.679,232.081 314.401,235.200 313.582 C 236.190 313.322,237.360 312.963,237.800 312.785 C 238.240 312.606,239.095 312.357,239.700 312.230 C 240.305 312.104,241.295 311.896,241.900 311.770 C 242.505 311.643,243.360 311.398,243.800 311.225 C 245.595 310.520,247.506 310.000,248.305 310.000 C 248.771 310.000,249.264 309.820,249.400 309.600 C 249.536 309.380,250.166 309.200,250.800 309.200 C 251.434 309.200,252.052 309.040,252.173 308.844 C 252.294 308.649,252.979 308.395,253.696 308.281 C 254.413 308.168,255.630 307.888,256.400 307.660 C 258.743 306.966,260.479 306.494,263.200 305.812 C 264.630 305.453,266.113 304.989,266.495 304.780 C 266.877 304.571,267.543 304.400,267.976 304.400 C 268.408 304.400,269.176 304.239,269.681 304.042 C 270.187 303.845,271.410 303.460,272.400 303.188 C 273.390 302.915,274.740 302.540,275.400 302.354 C 276.060 302.168,278.310 301.563,280.400 301.011 C 282.490 300.459,284.740 299.844,285.400 299.646 C 286.060 299.448,287.436 299.052,288.458 298.768 L 290.316 298.250 290.553 295.625 C 290.779 293.108,291.188 288.658,292.026 279.600 C 292.610 273.286,293.169 267.107,293.600 262.200 C 294.057 256.996,294.635 250.614,295.176 244.800 C 295.391 242.490,295.762 238.350,296.000 235.600 C 296.238 232.850,296.597 228.800,296.798 226.600 C 296.998 224.400,297.341 220.530,297.559 218.000 C 297.928 213.720,298.316 209.442,299.193 200.000 C 299.387 197.910,299.740 193.770,299.978 190.800 C 300.215 187.830,300.673 182.610,300.994 179.200 C 301.315 175.790,301.759 170.840,301.981 168.200 C 302.373 163.523,302.768 159.092,303.614 149.900 C 303.842 147.425,304.205 143.330,304.422 140.800 C 304.639 138.270,304.993 134.265,305.208 131.900 C 306.012 123.079,306.429 118.475,306.828 114.000 C 307.053 111.470,307.408 107.510,307.616 105.200 C 307.824 102.890,308.179 98.930,308.405 96.400 C 308.631 93.870,308.996 89.820,309.216 87.400 C 309.889 80.008,310.252 74.616,310.099 74.300 C 309.908 73.908,90.090 73.908,89.909 74.300 " stroke="none" fill="#fbfbfc" fill-rule="evenodd"></path><path id="path1" d="M24.800 4.400 C 24.800 7.067,24.958 8.800,25.200 8.800 C 25.443 8.800,25.600 10.600,25.600 13.400 C 25.600 16.200,25.757 18.000,26.000 18.000 C 26.238 18.000,26.400 19.507,26.400 21.720 C 26.400 24.142,26.574 25.628,26.900 25.979 C 27.300 26.410,27.300 26.461,26.900 26.235 C 26.625 26.080,26.400 26.143,26.400 26.376 C 26.400 26.609,26.557 26.800,26.749 26.800 C 26.941 26.800,27.230 30.580,27.391 35.200 C 27.551 39.820,27.834 43.600,28.017 43.600 C 28.201 43.600,28.451 45.625,28.572 48.100 C 29.137 59.635,29.275 61.425,29.625 61.780 C 29.831 61.989,30.000 64.003,30.000 66.256 C 30.000 68.556,30.175 70.461,30.400 70.600 C 30.621 70.736,30.800 72.529,30.800 74.598 C 30.800 76.660,30.974 78.807,31.188 79.368 C 31.401 79.928,31.601 82.190,31.632 84.394 C 31.662 86.597,31.848 88.400,32.044 88.400 C 32.240 88.400,32.400 90.380,32.400 92.800 C 32.400 95.467,32.558 97.200,32.800 97.200 C 33.042 97.200,33.200 98.933,33.200 101.600 C 33.200 104.267,33.358 106.000,33.600 106.000 C 33.842 106.000,34.000 107.725,34.000 110.376 C 34.000 112.863,34.173 114.860,34.400 115.000 C 34.623 115.138,34.800 116.996,34.800 119.200 C 34.800 121.404,34.977 123.262,35.200 123.400 C 35.423 123.538,35.600 125.404,35.600 127.624 C 35.600 130.008,35.760 131.600,36.000 131.600 C 36.244 131.600,36.400 133.408,36.400 136.224 C 36.400 139.204,36.542 140.759,36.800 140.600 C 37.058 140.440,37.200 142.036,37.200 145.096 C 37.200 147.705,37.371 150.011,37.579 150.220 C 37.788 150.429,37.990 152.445,38.028 154.700 C 38.067 156.955,38.256 158.800,38.449 158.800 C 38.642 158.800,38.800 160.765,38.800 163.167 C 38.800 165.573,38.971 167.593,39.181 167.667 C 39.391 167.740,39.592 169.738,39.629 172.106 C 39.666 174.474,39.854 176.510,40.048 176.630 C 40.242 176.749,40.400 178.817,40.400 181.224 C 40.400 183.875,40.558 185.600,40.800 185.600 C 41.041 185.600,41.200 187.267,41.200 189.800 C 41.200 192.333,41.359 194.000,41.600 194.000 C 41.842 194.000,42.000 195.725,42.000 198.376 C 42.000 200.863,42.173 202.860,42.400 203.000 C 42.627 203.140,42.800 205.126,42.800 207.590 C 42.800 209.979,42.962 211.993,43.160 212.067 C 43.358 212.140,43.651 215.890,43.811 220.400 C 43.970 224.910,44.236 228.690,44.401 228.800 C 44.565 228.910,44.733 230.880,44.774 233.177 C 44.815 235.475,44.973 237.545,45.124 237.777 C 45.397 238.195,45.821 243.231,46.237 251.000 C 46.355 253.200,46.620 255.171,46.826 255.380 C 47.032 255.589,47.200 257.512,47.200 259.654 C 47.200 261.796,47.374 264.007,47.588 264.568 C 47.801 265.128,48.001 267.390,48.032 269.594 C 48.062 271.797,48.248 273.600,48.444 273.600 C 48.640 273.600,48.800 275.565,48.800 277.967 C 48.800 280.368,48.971 282.393,49.180 282.467 C 49.389 282.540,49.590 284.400,49.626 286.600 C 49.662 288.800,49.841 290.787,50.025 291.016 C 50.208 291.244,50.389 293.266,50.428 295.509 C 50.467 297.751,50.656 299.489,50.849 299.370 C 51.043 299.250,51.200 301.218,51.200 303.753 C 51.200 306.388,51.371 308.458,51.600 308.600 C 51.827 308.741,52.003 310.778,52.006 313.324 C 52.010 316.362,52.137 317.607,52.400 317.200 C 52.662 316.794,52.790 318.126,52.794 321.324 C 52.797 323.990,52.955 325.951,53.157 325.827 C 53.357 325.703,53.540 327.666,53.574 330.300 C 53.607 332.882,53.806 335.166,54.017 335.377 C 54.228 335.588,54.400 337.625,54.400 339.904 C 54.400 342.564,54.543 343.959,54.800 343.800 C 55.057 343.641,55.200 345.036,55.200 347.696 C 55.200 350.457,55.367 352.020,55.700 352.379 C 56.100 352.810,56.100 352.861,55.700 352.635 C 55.425 352.480,55.200 352.543,55.200 352.776 C 55.200 353.009,55.380 353.200,55.600 353.200 C 55.836 353.200,56.000 354.619,56.000 356.656 C 56.000 360.530,56.375 361.164,58.676 361.187 C 59.378 361.194,60.064 361.380,60.200 361.600 C 60.336 361.820,60.876 362.000,61.400 362.000 C 61.924 362.000,62.464 362.180,62.600 362.400 C 62.736 362.620,63.377 362.800,64.024 362.800 C 64.671 362.800,65.200 362.980,65.200 363.200 C 65.200 363.420,66.010 363.600,67.000 363.600 C 67.990 363.600,68.800 363.780,68.800 364.000 C 68.800 364.220,69.250 364.400,69.800 364.400 C 70.350 364.400,70.800 364.580,70.800 364.800 C 70.800 365.020,71.520 365.200,72.400 365.200 C 73.280 365.200,74.000 365.380,74.000 365.600 C 74.000 365.820,74.765 366.003,75.700 366.006 C 76.945 366.011,77.239 366.116,76.800 366.400 C 76.353 366.689,76.576 366.789,77.676 366.794 C 78.488 366.797,79.264 366.980,79.400 367.200 C 79.536 367.420,80.367 367.600,81.247 367.600 C 82.212 367.600,82.749 367.759,82.600 368.000 C 82.456 368.233,82.855 368.400,83.553 368.400 C 84.213 368.400,84.864 368.580,85.000 368.800 C 85.136 369.020,85.867 369.200,86.624 369.200 C 87.381 369.200,88.000 369.360,88.000 369.556 C 88.000 369.752,88.630 370.022,89.400 370.156 C 90.170 370.290,91.430 370.510,92.200 370.644 C 92.970 370.778,93.600 371.048,93.600 371.244 C 93.600 371.440,93.992 371.600,94.472 371.600 C 95.392 371.600,97.728 372.260,98.895 372.849 C 99.277 373.042,100.132 373.200,100.795 373.200 C 101.458 373.200,102.000 373.360,102.000 373.556 C 102.000 373.932,102.707 374.096,107.700 374.875 C 109.405 375.141,110.800 375.503,110.800 375.679 C 110.800 375.856,111.239 376.000,111.776 376.000 C 112.313 376.000,112.864 376.180,113.000 376.400 C 113.136 376.620,113.957 376.800,114.824 376.800 C 115.691 376.800,116.400 376.980,116.400 377.200 C 116.400 377.420,116.951 377.600,117.624 377.600 C 118.337 377.600,118.744 377.767,118.600 378.000 C 118.451 378.242,118.996 378.400,119.976 378.400 C 120.869 378.400,121.600 378.580,121.600 378.800 C 121.600 379.020,122.140 379.200,122.800 379.200 C 123.460 379.200,124.000 379.343,124.000 379.518 C 124.000 379.693,124.675 379.881,125.500 379.936 C 126.325 379.990,127.060 380.207,127.133 380.418 C 127.207 380.628,127.792 380.800,128.433 380.800 C 129.075 380.800,129.600 380.980,129.600 381.200 C 129.600 381.420,130.230 381.600,131.000 381.600 C 131.770 381.600,132.400 381.780,132.400 382.000 C 132.400 382.220,133.120 382.400,134.000 382.400 C 134.880 382.400,135.600 382.541,135.600 382.713 C 135.600 382.885,136.087 383.066,136.682 383.115 C 137.278 383.164,137.944 383.384,138.162 383.602 C 138.381 383.821,139.154 384.000,139.880 384.000 C 140.606 384.000,141.200 384.180,141.200 384.400 C 141.200 384.620,141.740 384.800,142.400 384.800 C 143.060 384.800,143.600 384.980,143.600 385.200 C 143.600 385.420,144.219 385.600,144.976 385.600 C 145.733 385.600,146.464 385.780,146.600 386.000 C 146.736 386.220,147.366 386.400,148.000 386.400 C 148.634 386.400,149.264 386.580,149.400 386.800 C 149.536 387.020,150.166 387.200,150.800 387.200 C 151.434 387.200,152.064 387.380,152.200 387.600 C 152.336 387.820,153.167 388.000,154.047 388.000 C 155.012 388.000,155.549 388.159,155.400 388.400 C 155.263 388.621,155.553 388.800,156.048 388.800 C 156.989 388.800,159.316 389.454,160.495 390.049 C 160.877 390.242,161.554 390.400,162.000 390.400 C 162.446 390.400,163.123 390.572,163.505 390.782 C 164.122 391.121,166.252 391.587,170.300 392.269 C 171.015 392.389,171.600 392.648,171.600 392.844 C 171.600 393.040,172.320 393.200,173.200 393.200 C 174.080 393.200,174.800 393.380,174.800 393.600 C 174.800 393.820,175.340 394.000,176.000 394.000 C 176.660 394.000,177.200 394.142,177.200 394.315 C 177.200 394.488,177.778 394.674,178.484 394.728 C 179.191 394.782,179.871 394.992,179.996 395.194 C 180.122 395.397,180.894 395.608,181.712 395.663 C 182.530 395.718,183.200 395.907,183.200 396.082 C 183.200 396.257,183.740 396.400,184.400 396.400 C 185.060 396.400,185.600 396.580,185.600 396.800 C 185.600 397.020,186.219 397.200,186.976 397.200 C 187.733 397.200,188.464 397.380,188.600 397.600 C 188.736 397.820,189.477 398.000,190.247 398.000 C 191.079 398.000,191.547 398.162,191.400 398.400 C 191.254 398.636,191.703 398.800,192.496 398.800 C 193.235 398.800,194.065 399.025,194.340 399.300 C 194.688 399.648,196.405 399.800,200.000 399.800 C 203.594 399.800,205.311 399.648,205.660 399.300 C 205.935 399.025,206.754 398.800,207.480 398.800 C 208.206 398.800,208.800 398.620,208.800 398.400 C 208.800 398.180,209.419 398.000,210.176 398.000 C 210.933 398.000,211.664 397.820,211.800 397.600 C 211.936 397.380,212.577 397.200,213.224 397.200 C 213.871 397.200,214.400 397.020,214.400 396.800 C 214.400 396.580,215.041 396.400,215.824 396.400 C 216.671 396.400,217.147 396.238,217.000 396.000 C 216.850 395.758,217.404 395.600,218.400 395.600 C 219.396 395.600,219.950 395.442,219.800 395.200 C 219.593 394.865,221.358 394.572,222.500 394.753 C 222.665 394.779,222.800 394.620,222.800 394.400 C 222.800 394.180,223.340 394.000,224.000 394.000 C 224.660 394.000,225.200 393.820,225.200 393.600 C 225.200 393.380,225.920 393.200,226.800 393.200 C 227.680 393.200,228.400 393.020,228.400 392.800 C 228.400 392.580,228.994 392.400,229.720 392.400 C 230.446 392.400,231.214 392.226,231.426 392.014 C 231.639 391.801,232.767 391.511,233.934 391.369 C 235.101 391.227,236.986 390.771,238.122 390.355 C 239.259 389.940,240.686 389.600,241.294 389.600 C 241.902 389.600,242.400 389.420,242.400 389.200 C 242.400 388.980,242.940 388.800,243.600 388.800 C 244.260 388.800,244.800 388.620,244.800 388.400 C 244.800 388.180,245.531 388.000,246.424 388.000 C 247.317 388.000,247.948 387.839,247.826 387.642 C 247.704 387.445,248.278 387.182,249.102 387.057 C 252.681 386.516,253.600 386.291,253.600 385.956 C 253.600 385.760,254.129 385.600,254.776 385.600 C 255.423 385.600,256.064 385.420,256.200 385.200 C 256.336 384.980,256.977 384.800,257.624 384.800 C 258.271 384.800,258.800 384.620,258.800 384.400 C 258.800 384.180,259.520 384.000,260.400 384.000 C 261.280 384.000,262.000 383.820,262.000 383.600 C 262.000 383.380,262.540 383.200,263.200 383.200 C 263.860 383.200,264.400 383.020,264.400 382.800 C 264.400 382.580,265.120 382.400,266.000 382.400 C 266.880 382.400,267.600 382.220,267.600 382.000 C 267.600 381.780,268.140 381.600,268.800 381.600 C 269.460 381.600,270.000 381.458,270.000 381.285 C 270.000 381.112,270.582 380.926,271.293 380.872 C 272.005 380.817,272.761 380.599,272.973 380.387 C 273.186 380.174,273.954 380.000,274.680 380.000 C 275.406 380.000,276.000 379.820,276.000 379.600 C 276.000 379.380,276.540 379.200,277.200 379.200 C 277.860 379.200,278.400 379.020,278.400 378.800 C 278.400 378.580,279.120 378.400,280.000 378.400 C 280.880 378.400,281.600 378.220,281.600 378.000 C 281.600 377.780,282.219 377.600,282.976 377.600 C 283.733 377.600,284.464 377.420,284.600 377.200 C 284.736 376.980,285.377 376.800,286.024 376.800 C 286.671 376.800,287.200 376.620,287.200 376.400 C 287.200 376.180,287.841 376.000,288.624 376.000 C 289.407 376.000,289.947 375.838,289.825 375.640 C 289.703 375.443,290.863 375.154,292.403 375.000 C 293.943 374.845,295.303 374.557,295.425 374.359 C 295.547 374.162,296.166 374.000,296.800 374.000 C 297.434 374.000,298.064 373.820,298.200 373.600 C 298.336 373.380,298.966 373.200,299.600 373.200 C 300.234 373.200,300.864 373.020,301.000 372.800 C 301.136 372.580,301.766 372.400,302.400 372.400 C 303.034 372.400,303.664 372.220,303.800 372.000 C 303.936 371.780,304.566 371.600,305.200 371.600 C 305.834 371.600,306.464 371.420,306.600 371.200 C 306.736 370.980,307.467 370.800,308.224 370.800 C 308.981 370.800,309.600 370.620,309.600 370.400 C 309.600 370.180,310.140 370.000,310.800 370.000 C 311.460 370.000,312.000 369.820,312.000 369.600 C 312.000 369.380,312.731 369.200,313.624 369.200 C 314.604 369.200,315.149 369.042,315.000 368.800 C 314.853 368.562,315.321 368.400,316.153 368.400 C 316.923 368.400,317.664 368.220,317.800 368.000 C 317.936 367.780,318.667 367.600,319.424 367.600 C 320.181 367.600,320.800 367.420,320.800 367.200 C 320.800 366.980,321.329 366.800,321.976 366.800 C 322.623 366.800,323.264 366.620,323.400 366.400 C 323.536 366.180,324.177 366.000,324.824 366.000 C 325.471 366.000,326.000 365.820,326.000 365.600 C 326.000 365.380,326.720 365.200,327.600 365.200 C 328.480 365.200,329.200 365.020,329.200 364.800 C 329.200 364.580,329.614 364.400,330.120 364.400 C 330.626 364.400,331.211 364.229,331.421 364.019 C 331.630 363.810,332.476 363.593,333.301 363.537 C 334.125 363.482,334.800 363.293,334.800 363.118 C 334.800 362.943,335.430 362.800,336.200 362.800 C 336.970 362.800,337.600 362.620,337.600 362.400 C 337.600 362.180,338.125 362.000,338.767 362.000 C 339.408 362.000,339.993 361.837,340.067 361.637 C 340.140 361.437,340.830 361.215,341.600 361.142 C 343.784 360.937,344.000 360.494,344.000 356.229 C 344.000 354.123,344.158 352.400,344.351 352.400 C 344.544 352.400,344.733 350.555,344.772 348.300 C 344.810 346.045,345.012 344.029,345.221 343.820 C 345.429 343.611,345.600 341.395,345.600 338.896 C 345.600 336.357,345.756 334.449,345.955 334.572 C 346.151 334.693,346.337 332.874,346.371 330.496 C 346.404 328.133,346.605 326.140,346.816 326.067 C 347.032 325.992,347.200 323.854,347.200 321.167 C 347.200 318.256,347.356 316.400,347.600 316.400 C 347.841 316.400,348.000 314.741,348.000 312.224 C 348.000 309.871,348.175 307.939,348.400 307.800 C 348.625 307.661,348.800 305.729,348.800 303.376 C 348.800 300.859,348.959 299.200,349.200 299.200 C 349.441 299.200,349.600 297.541,349.600 295.024 C 349.600 292.671,349.775 290.739,350.000 290.600 C 350.223 290.462,350.400 288.604,350.400 286.400 C 350.400 284.196,350.577 282.338,350.800 282.200 C 351.029 282.058,351.200 279.996,351.200 277.376 C 351.200 274.592,351.357 272.800,351.600 272.800 C 351.841 272.800,352.000 271.133,352.000 268.600 C 352.000 266.290,352.161 264.400,352.357 264.400 C 352.554 264.400,352.740 262.472,352.771 260.115 C 352.802 257.759,352.980 255.734,353.166 255.615 C 353.353 255.497,353.534 253.615,353.570 251.434 C 353.605 249.253,353.762 247.273,353.917 247.034 C 354.073 246.795,354.333 244.620,354.495 242.200 C 354.786 237.876,355.205 232.915,356.017 224.200 C 356.242 221.780,356.523 217.823,356.640 215.407 C 356.757 212.991,357.009 210.918,357.198 210.801 C 357.388 210.684,357.587 208.574,357.639 206.112 C 357.692 203.650,357.885 201.729,358.068 201.842 C 358.250 201.955,358.422 200.237,358.450 198.024 C 358.478 195.811,358.545 193.820,358.600 193.600 C 358.655 193.380,358.723 191.299,358.750 188.976 C 358.782 186.274,358.944 184.842,359.200 185.000 C 359.458 185.159,359.600 183.604,359.600 180.624 C 359.600 177.808,359.756 176.000,360.000 176.000 C 360.241 176.000,360.400 174.341,360.400 171.824 C 360.400 169.471,360.575 167.539,360.800 167.400 C 361.025 167.261,361.200 165.329,361.200 162.976 C 361.200 160.459,361.359 158.800,361.600 158.800 C 361.841 158.800,362.000 157.141,362.000 154.624 C 362.000 152.271,362.175 150.339,362.400 150.200 C 362.629 150.058,362.800 147.996,362.800 145.376 C 362.800 142.592,362.957 140.800,363.200 140.800 C 363.441 140.800,363.600 139.141,363.600 136.624 C 363.600 134.271,363.775 132.339,364.000 132.200 C 364.225 132.061,364.400 130.129,364.400 127.776 C 364.400 125.479,364.560 123.600,364.756 123.600 C 364.951 123.600,365.139 121.581,365.173 119.113 C 365.207 116.645,365.384 114.530,365.567 114.413 C 365.750 114.296,365.933 112.310,365.972 110.000 C 366.012 107.690,366.215 105.740,366.422 105.667 C 366.630 105.593,366.800 103.658,366.800 101.367 C 366.800 98.856,366.959 97.200,367.200 97.200 C 367.442 97.200,367.600 95.475,367.600 92.824 C 367.600 90.337,367.773 88.340,368.000 88.200 C 368.227 88.060,368.400 86.063,368.400 83.576 C 368.400 80.925,368.558 79.200,368.800 79.200 C 369.042 79.200,369.200 77.493,369.200 74.880 C 369.200 72.504,369.372 70.388,369.583 70.177 C 369.793 69.967,369.993 67.772,370.027 65.301 C 370.061 62.796,370.246 60.905,370.444 61.027 C 370.643 61.150,370.800 59.388,370.800 57.024 C 370.800 54.475,370.959 52.800,371.200 52.800 C 371.444 52.800,371.600 50.992,371.600 48.176 C 371.600 45.402,371.750 43.645,371.975 43.784 C 372.355 44.019,372.702 39.029,372.897 30.534 C 372.959 27.836,373.158 26.094,373.400 26.134 C 373.635 26.173,373.845 24.718,373.908 22.600 C 373.968 20.620,374.131 18.550,374.271 18.000 C 374.411 17.450,374.571 16.774,374.628 16.498 C 374.684 16.221,374.860 12.396,375.020 7.998 L 375.310 0.000 200.055 0.000 L 24.800 0.000 24.800 4.400 M311.037 76.500 C 310.831 79.572,310.634 81.854,309.607 93.100 C 309.391 95.465,309.036 99.470,308.819 102.000 C 308.601 104.530,308.234 108.670,308.003 111.200 C 307.057 121.579,306.848 124.058,306.451 129.600 C 306.223 132.790,305.854 137.290,305.630 139.600 C 305.406 141.910,305.033 145.870,304.801 148.400 C 304.568 150.930,304.280 153.990,304.159 155.200 C 304.038 156.410,303.764 159.560,303.549 162.200 C 303.335 164.840,302.990 168.890,302.783 171.200 C 302.576 173.510,302.221 177.470,301.995 180.000 C 301.430 186.329,300.878 192.367,300.377 197.700 C 300.145 200.175,299.787 204.090,299.582 206.400 C 299.377 208.710,299.034 212.490,298.819 214.800 C 298.604 217.110,298.239 221.160,298.007 223.800 C 297.775 226.440,297.410 230.490,297.196 232.800 C 296.229 243.231,295.963 246.461,295.763 250.200 C 295.645 252.400,295.380 254.371,295.174 254.580 C 294.968 254.789,294.800 256.778,294.800 259.000 C 294.800 261.222,294.632 263.211,294.426 263.420 C 294.074 263.777,293.907 265.810,293.392 276.000 C 293.275 278.310,293.009 280.560,292.801 281.000 C 292.592 281.440,292.331 283.510,292.221 285.600 C 291.525 298.793,291.350 299.600,289.175 299.600 C 288.555 299.600,287.936 299.780,287.800 300.000 C 287.664 300.220,287.034 300.400,286.400 300.400 C 285.766 300.400,285.136 300.580,285.000 300.800 C 284.864 301.020,284.234 301.200,283.600 301.200 C 282.966 301.200,282.336 301.380,282.200 301.600 C 282.064 301.820,281.522 302.000,280.995 302.000 C 280.469 302.000,279.624 302.157,279.119 302.349 C 277.613 302.920,276.772 303.152,263.000 306.776 C 260.015 307.562,258.130 308.111,257.281 308.442 C 256.776 308.639,255.931 308.800,255.405 308.800 C 254.878 308.800,254.336 308.980,254.200 309.200 C 254.064 309.420,253.434 309.600,252.800 309.600 C 252.166 309.600,251.536 309.780,251.400 310.000 C 251.264 310.220,250.634 310.400,250.000 310.400 C 249.366 310.400,248.736 310.580,248.600 310.800 C 248.464 311.020,247.733 311.200,246.976 311.200 C 246.219 311.200,245.600 311.360,245.600 311.556 C 245.600 311.893,245.149 312.011,241.496 312.633 C 240.669 312.773,239.894 313.049,239.773 313.244 C 239.652 313.440,239.034 313.600,238.400 313.600 C 237.766 313.600,237.136 313.780,237.000 314.000 C 236.864 314.220,236.234 314.400,235.600 314.400 C 234.966 314.400,234.336 314.580,234.200 314.800 C 234.064 315.020,233.434 315.200,232.800 315.200 C 232.166 315.200,231.536 315.380,231.400 315.600 C 231.264 315.820,230.634 316.000,230.000 316.000 C 229.366 316.000,228.748 316.160,228.627 316.356 C 228.506 316.551,227.821 316.805,227.104 316.919 C 226.387 317.032,225.125 317.322,224.300 317.563 C 222.870 317.980,221.889 318.261,218.500 319.228 C 217.675 319.463,216.550 319.747,216.000 319.858 C 215.450 319.969,214.640 320.211,214.200 320.395 C 213.760 320.579,211.150 321.303,208.400 322.003 C 205.650 322.703,202.680 323.460,201.800 323.684 C 199.889 324.171,199.836 324.170,197.800 323.605 C 196.920 323.361,195.210 322.918,194.000 322.620 C 191.733 322.063,186.319 320.613,184.200 319.995 C 180.565 318.935,179.683 318.707,178.496 318.519 C 177.779 318.405,177.094 318.151,176.973 317.956 C 176.852 317.760,176.234 317.600,175.600 317.600 C 174.966 317.600,174.336 317.420,174.200 317.200 C 174.064 316.980,173.434 316.800,172.800 316.800 C 172.166 316.800,171.536 316.620,171.400 316.400 C 171.264 316.180,170.634 316.000,170.000 316.000 C 169.366 316.000,168.736 315.820,168.600 315.600 C 168.464 315.380,167.834 315.200,167.200 315.200 C 166.566 315.200,165.948 315.040,165.827 314.844 C 165.706 314.649,164.976 314.379,164.204 314.244 C 163.432 314.110,162.170 313.890,161.400 313.756 C 160.630 313.622,160.000 313.352,160.000 313.156 C 160.000 312.960,159.381 312.800,158.624 312.800 C 157.867 312.800,157.136 312.620,157.000 312.400 C 156.864 312.180,156.234 312.000,155.600 312.000 C 154.966 312.000,154.336 311.820,154.200 311.600 C 154.064 311.380,153.434 311.200,152.800 311.200 C 152.166 311.200,151.536 311.020,151.400 310.800 C 151.264 310.580,150.634 310.400,150.000 310.400 C 149.366 310.400,148.736 310.220,148.600 310.000 C 148.464 309.780,147.834 309.600,147.200 309.600 C 146.566 309.600,145.936 309.420,145.800 309.200 C 145.664 308.980,145.122 308.800,144.595 308.800 C 144.069 308.800,143.224 308.643,142.719 308.451 C 141.743 308.081,140.014 307.573,137.400 306.890 C 126.285 303.985,122.319 302.895,120.881 302.349 C 120.376 302.157,119.531 302.000,119.005 302.000 C 118.478 302.000,117.936 301.820,117.800 301.600 C 117.664 301.380,117.034 301.200,116.400 301.200 C 115.766 301.200,115.136 301.020,115.000 300.800 C 114.864 300.580,114.234 300.400,113.600 300.400 C 112.966 300.400,112.336 300.220,112.200 300.000 C 112.064 299.780,111.463 299.600,110.865 299.600 C 108.902 299.600,108.400 298.464,108.400 294.019 C 108.400 291.803,108.223 289.938,108.000 289.800 C 107.775 289.661,107.600 287.756,107.600 285.456 C 107.600 283.203,107.431 281.189,107.225 280.980 C 107.019 280.771,106.755 278.710,106.637 276.400 C 106.520 274.090,106.241 270.220,106.016 267.800 C 105.791 265.380,105.428 261.420,105.208 259.000 C 104.989 256.580,104.635 252.710,104.421 250.400 C 102.996 235.019,102.461 227.936,102.690 227.500 C 102.776 227.335,112.991 227.200,125.388 227.200 L 147.929 227.200 148.172 229.700 C 148.529 233.363,149.104 239.559,149.574 244.800 C 149.801 247.330,150.180 251.470,150.416 254.000 C 150.652 256.530,150.940 259.815,151.055 261.301 C 151.253 263.838,151.330 264.014,152.333 264.214 C 152.920 264.332,153.940 264.577,154.600 264.760 C 155.260 264.942,156.610 265.315,157.600 265.588 C 158.590 265.860,159.813 266.245,160.319 266.442 C 160.824 266.639,161.669 266.800,162.195 266.800 C 162.722 266.800,163.252 266.960,163.373 267.156 C 163.494 267.351,164.179 267.605,164.896 267.719 C 165.613 267.832,166.920 268.139,167.800 268.400 C 168.680 268.661,169.987 268.968,170.704 269.081 C 171.421 269.195,172.106 269.449,172.227 269.644 C 172.348 269.840,172.966 270.000,173.600 270.000 C 174.234 270.000,174.864 270.180,175.000 270.400 C 175.136 270.620,175.856 270.800,176.600 270.800 C 177.344 270.800,178.064 270.980,178.200 271.200 C 178.336 271.420,178.966 271.600,179.600 271.600 C 180.234 271.600,180.864 271.780,181.000 272.000 C 181.136 272.220,181.766 272.400,182.400 272.400 C 183.034 272.400,183.664 272.580,183.800 272.800 C 183.936 273.020,184.667 273.200,185.424 273.200 C 186.181 273.200,186.800 273.380,186.800 273.600 C 186.800 273.820,187.419 274.000,188.176 274.000 C 188.933 274.000,189.664 274.180,189.800 274.400 C 189.936 274.620,190.566 274.800,191.200 274.800 C 191.834 274.800,192.464 274.980,192.600 275.200 C 192.736 275.420,193.467 275.600,194.224 275.600 C 194.981 275.600,195.600 275.780,195.600 276.000 C 195.600 276.220,196.219 276.400,196.976 276.400 C 197.733 276.400,198.464 276.580,198.600 276.800 C 198.736 277.020,199.366 277.200,200.000 277.200 C 200.634 277.200,201.264 277.020,201.400 276.800 C 201.536 276.580,202.267 276.400,203.024 276.400 C 203.781 276.400,204.400 276.220,204.400 276.000 C 204.400 275.780,205.030 275.600,205.800 275.600 C 206.570 275.600,207.200 275.420,207.200 275.200 C 207.200 274.980,207.819 274.800,208.576 274.800 C 209.333 274.800,210.064 274.620,210.200 274.400 C 210.336 274.180,210.966 274.000,211.600 274.000 C 212.234 274.000,212.852 273.840,212.973 273.644 C 213.094 273.449,213.869 273.173,214.696 273.033 C 218.324 272.415,218.819 272.292,219.027 271.956 C 219.148 271.760,219.766 271.600,220.400 271.600 C 221.034 271.600,221.664 271.420,221.800 271.200 C 221.936 270.980,222.579 270.800,223.229 270.800 C 223.879 270.800,224.723 270.642,225.105 270.449 C 226.261 269.865,228.604 269.200,229.505 269.200 C 229.971 269.200,230.464 269.020,230.600 268.800 C 230.736 268.580,231.366 268.400,232.000 268.400 C 232.634 268.400,233.264 268.220,233.400 268.000 C 233.536 267.780,234.029 267.600,234.495 267.600 C 234.962 267.600,235.896 267.432,236.572 267.227 C 237.247 267.022,238.610 266.641,239.600 266.381 C 240.590 266.120,241.850 265.769,242.400 265.600 C 243.901 265.139,246.466 264.467,247.650 264.225 C 248.597 264.031,248.726 263.783,248.959 261.705 C 249.416 257.645,250.007 252.307,250.432 248.400 C 250.660 246.310,251.019 243.070,251.230 241.200 C 251.982 234.538,252.406 230.749,252.805 227.100 C 253.028 225.065,253.385 221.870,253.600 220.000 C 254.354 213.426,254.822 208.973,255.045 206.238 L 255.271 203.476 226.735 203.739 C 205.028 203.940,104.972 204.167,101.150 204.024 C 100.373 203.995,100.076 202.801,99.553 197.600 C 99.343 195.510,99.013 192.270,98.820 190.400 C 98.627 188.530,98.278 185.020,98.044 182.600 C 97.810 180.180,97.442 176.670,97.226 174.800 C 96.152 165.496,95.929 161.968,96.380 161.424 C 96.753 160.975,102.367 160.832,127.917 160.622 C 157.824 160.376,209.414 159.818,243.100 159.377 L 259.200 159.166 259.200 157.463 C 259.200 156.526,259.367 155.589,259.571 155.380 C 259.775 155.171,260.038 152.660,260.155 149.800 C 260.354 144.950,260.512 142.628,261.605 128.400 C 261.833 125.430,262.123 121.221,262.249 119.047 L 262.478 115.094 250.339 115.347 C 220.506 115.970,92.203 116.127,91.717 115.541 C 91.438 115.205,91.160 112.861,91.033 109.787 C 90.915 106.934,90.633 101.990,90.407 98.800 C 89.560 86.895,89.185 81.288,88.970 77.300 L 88.749 73.200 200.004 73.200 L 311.259 73.200 311.037 76.500 " stroke="none" fill="#2494f4" fill-rule="evenodd"></path><path id="path2" d="M144.700 73.500 C 175.115 73.557,224.885 73.557,255.300 73.500 C 285.715 73.443,260.830 73.397,200.000 73.397 C 139.170 73.397,114.285 73.443,144.700 73.500 M89.301 77.800 C 89.305 78.680,89.387 78.993,89.483 78.495 C 89.579 77.998,89.575 77.278,89.475 76.895 C 89.375 76.513,89.296 76.920,89.301 77.800 M310.114 82.600 C 310.117 83.700,310.195 84.103,310.287 83.495 C 310.379 82.886,310.377 81.986,310.282 81.495 C 310.187 81.003,310.111 81.500,310.114 82.600 M89.731 84.200 C 89.733 85.740,89.805 86.321,89.892 85.491 C 89.979 84.661,89.977 83.401,89.889 82.691 C 89.800 81.981,89.729 82.660,89.731 84.200 M90.093 89.600 C 90.093 90.370,90.175 90.685,90.276 90.300 C 90.376 89.915,90.376 89.285,90.276 88.900 C 90.175 88.515,90.093 88.830,90.093 89.600 M309.314 91.400 C 309.317 92.500,309.395 92.903,309.487 92.295 C 309.579 91.686,309.577 90.786,309.482 90.295 C 309.387 89.803,309.311 90.300,309.314 91.400 M90.528 95.600 C 90.528 97.030,90.601 97.615,90.689 96.900 C 90.778 96.185,90.778 95.015,90.689 94.300 C 90.601 93.585,90.528 94.170,90.528 95.600 M308.514 100.200 C 308.517 101.300,308.595 101.703,308.687 101.095 C 308.779 100.486,308.777 99.586,308.682 99.095 C 308.587 98.603,308.511 99.100,308.514 100.200 M90.893 100.800 C 90.893 101.570,90.975 101.885,91.076 101.500 C 91.176 101.115,91.176 100.485,91.076 100.100 C 90.975 99.715,90.893 100.030,90.893 100.800 M91.331 107.000 C 91.333 108.540,91.405 109.121,91.492 108.291 C 91.579 107.461,91.577 106.201,91.489 105.491 C 91.400 104.781,91.329 105.460,91.331 107.000 M307.709 109.600 C 307.709 110.590,307.787 110.995,307.882 110.500 C 307.978 110.005,307.978 109.195,307.882 108.700 C 307.787 108.205,307.709 108.610,307.709 109.600 M91.693 112.800 C 91.693 113.570,91.775 113.885,91.876 113.500 C 91.976 113.115,91.976 112.485,91.876 112.100 C 91.775 111.715,91.693 112.030,91.693 112.800 M226.072 115.099 C 262.437 115.203,262.746 115.211,262.926 116.008 C 263.075 116.673,263.097 116.656,263.053 115.906 L 263.000 115.000 226.200 114.997 L 189.400 114.994 226.072 115.099 M112.900 115.500 C 122.305 115.560,137.695 115.560,147.100 115.500 C 156.505 115.440,148.810 115.391,130.000 115.391 C 111.190 115.391,103.495 115.440,112.900 115.500 M306.909 118.400 C 306.909 119.390,306.987 119.795,307.082 119.300 C 307.178 118.805,307.178 117.995,307.082 117.500 C 306.987 117.005,306.909 117.410,306.909 118.400 M262.514 119.000 C 262.517 120.100,262.595 120.503,262.687 119.895 C 262.779 119.286,262.777 118.386,262.682 117.895 C 262.587 117.403,262.511 117.900,262.514 119.000 M262.093 126.400 C 262.093 127.170,262.175 127.485,262.276 127.100 C 262.376 126.715,262.376 126.085,262.276 125.700 C 262.175 125.315,262.093 125.630,262.093 126.400 M306.101 127.800 C 306.105 128.680,306.187 128.993,306.283 128.495 C 306.379 127.998,306.375 127.278,306.275 126.895 C 306.175 126.513,306.096 126.920,306.101 127.800 M261.714 130.200 C 261.717 131.300,261.795 131.703,261.887 131.095 C 261.979 130.486,261.977 129.586,261.882 129.095 C 261.787 128.603,261.711 129.100,261.714 130.200 M305.301 136.600 C 305.305 137.480,305.387 137.793,305.483 137.295 C 305.579 136.798,305.575 136.078,305.475 135.695 C 305.375 135.313,305.296 135.720,305.301 136.600 M261.293 137.200 C 261.293 137.970,261.375 138.285,261.476 137.900 C 261.576 137.515,261.576 136.885,261.476 136.500 C 261.375 136.115,261.293 136.430,261.293 137.200 M260.920 140.800 C 260.920 142.010,260.995 142.505,261.087 141.900 C 261.178 141.295,261.178 140.305,261.087 139.700 C 260.995 139.095,260.920 139.590,260.920 140.800 M304.501 145.400 C 304.505 146.280,304.587 146.593,304.683 146.095 C 304.779 145.598,304.775 144.878,304.675 144.495 C 304.575 144.113,304.496 144.520,304.501 145.400 M260.493 147.600 C 260.493 148.370,260.575 148.685,260.676 148.300 C 260.776 147.915,260.776 147.285,260.676 146.900 C 260.575 146.515,260.493 146.830,260.493 147.600 M260.124 152.200 C 260.126 153.520,260.201 154.012,260.290 153.293 C 260.379 152.574,260.377 151.494,260.286 150.893 C 260.195 150.292,260.122 150.880,260.124 152.200 M303.701 154.600 C 303.705 155.480,303.787 155.793,303.883 155.295 C 303.979 154.798,303.975 154.078,303.875 153.695 C 303.775 153.313,303.696 153.720,303.701 154.600 M243.300 159.898 C 245.225 159.971,248.375 159.971,250.300 159.898 C 252.225 159.825,250.650 159.765,246.800 159.765 C 242.950 159.765,241.375 159.825,243.300 159.898 M199.900 160.299 C 203.695 160.365,209.905 160.365,213.700 160.299 C 217.495 160.234,214.390 160.180,206.800 160.180 C 199.210 160.180,196.105 160.234,199.900 160.299 M174.300 160.698 C 176.335 160.771,179.665 160.771,181.700 160.698 C 183.735 160.625,182.070 160.566,178.000 160.566 C 173.930 160.566,172.265 160.625,174.300 160.698 M128.700 161.099 C 132.055 161.166,137.545 161.166,140.900 161.099 C 144.255 161.032,141.510 160.978,134.800 160.978 C 128.090 160.978,125.345 161.032,128.700 161.099 M108.300 161.498 C 110.335 161.571,113.665 161.571,115.700 161.498 C 117.735 161.425,116.070 161.366,112.000 161.366 C 107.930 161.366,106.265 161.425,108.300 161.498 M302.901 163.400 C 302.905 164.280,302.987 164.593,303.083 164.095 C 303.179 163.598,303.175 162.878,303.075 162.495 C 302.975 162.113,302.896 162.520,302.901 163.400 M96.893 168.400 C 96.893 169.170,96.975 169.485,97.076 169.100 C 97.176 168.715,97.176 168.085,97.076 167.700 C 96.975 167.315,96.893 167.630,96.893 168.400 M302.093 172.000 C 302.093 172.770,302.175 173.085,302.276 172.700 C 302.376 172.315,302.376 171.685,302.276 171.300 C 302.175 170.915,302.093 171.230,302.093 172.000 M97.701 175.800 C 97.705 176.680,97.787 176.993,97.883 176.495 C 97.979 175.998,97.975 175.278,97.875 174.895 C 97.775 174.513,97.696 174.920,97.701 175.800 M301.693 175.600 C 301.693 176.370,301.775 176.685,301.876 176.300 C 301.976 175.915,301.976 175.285,301.876 174.900 C 301.775 174.515,301.693 174.830,301.693 175.600 M301.293 181.200 C 301.293 181.970,301.375 182.285,301.476 181.900 C 301.576 181.515,301.576 180.885,301.476 180.500 C 301.375 180.115,301.293 180.430,301.293 181.200 M98.493 183.600 C 98.493 184.370,98.575 184.685,98.676 184.300 C 98.776 183.915,98.776 183.285,98.676 182.900 C 98.575 182.515,98.493 182.830,98.493 183.600 M300.893 184.000 C 300.893 184.770,300.975 185.085,301.076 184.700 C 301.176 184.315,301.176 183.685,301.076 183.300 C 300.975 182.915,300.893 183.230,300.893 184.000 M300.493 190.000 C 300.493 190.770,300.575 191.085,300.676 190.700 C 300.776 190.315,300.776 189.685,300.676 189.300 C 300.575 188.915,300.493 189.230,300.493 190.000 M300.093 192.800 C 300.093 193.570,300.175 193.885,300.276 193.500 C 300.376 193.115,300.376 192.485,300.276 192.100 C 300.175 191.715,300.093 192.030,300.093 192.800 M299.301 202.200 C 299.305 203.080,299.387 203.393,299.483 202.895 C 299.579 202.398,299.575 201.678,299.475 201.295 C 299.375 200.913,299.296 201.320,299.301 202.200 M101.146 203.707 C 101.316 203.876,106.032 203.966,111.627 203.907 L 121.800 203.799 111.319 203.599 C 105.555 203.490,100.977 203.538,101.146 203.707 M153.500 203.500 C 163.455 203.559,179.745 203.559,189.700 203.500 C 199.655 203.440,191.510 203.392,171.600 203.392 C 151.690 203.392,143.545 203.440,153.500 203.500 M255.309 208.400 C 255.309 209.390,255.387 209.795,255.482 209.300 C 255.578 208.805,255.578 207.995,255.482 207.500 C 255.387 207.005,255.309 207.410,255.309 208.400 M298.501 211.000 C 298.505 211.880,298.587 212.193,298.683 211.695 C 298.779 211.198,298.775 210.478,298.675 210.095 C 298.575 209.713,298.496 210.120,298.501 211.000 M254.501 215.400 C 254.505 216.280,254.587 216.593,254.683 216.095 C 254.779 215.598,254.775 214.878,254.675 214.495 C 254.575 214.113,254.496 214.520,254.501 215.400 M298.093 216.400 C 298.093 217.170,298.175 217.485,298.276 217.100 C 298.376 216.715,298.376 216.085,298.276 215.700 C 298.175 215.315,298.093 215.630,298.093 216.400 M297.714 220.600 C 297.717 221.700,297.795 222.103,297.887 221.495 C 297.979 220.886,297.977 219.986,297.882 219.495 C 297.787 219.003,297.711 219.500,297.714 220.600 M114.128 227.500 C 120.249 227.562,130.149 227.562,136.128 227.500 C 142.108 227.437,137.100 227.387,125.000 227.387 C 112.900 227.387,108.008 227.438,114.128 227.500 M296.914 229.400 C 296.917 230.500,296.995 230.903,297.087 230.295 C 297.179 229.686,297.177 228.786,297.082 228.295 C 296.987 227.803,296.911 228.300,296.914 229.400 M147.714 231.000 C 147.717 232.100,147.795 232.503,147.887 231.895 C 147.979 231.286,147.977 230.386,147.882 229.895 C 147.787 229.403,147.711 229.900,147.714 231.000 M252.893 230.400 C 252.893 231.170,252.975 231.485,253.076 231.100 C 253.176 230.715,253.176 230.085,253.076 229.700 C 252.975 229.315,252.893 229.630,252.893 230.400 M103.709 237.200 C 103.709 238.190,103.787 238.595,103.882 238.100 C 103.978 237.605,103.978 236.795,103.882 236.300 C 103.787 235.805,103.709 236.210,103.709 237.200 M252.093 237.600 C 252.093 238.370,252.175 238.685,252.276 238.300 C 252.376 237.915,252.376 237.285,252.276 236.900 C 252.175 236.515,252.093 236.830,252.093 237.600 M296.114 238.200 C 296.117 239.300,296.195 239.703,296.287 239.095 C 296.379 238.486,296.377 237.586,296.282 237.095 C 296.187 236.603,296.111 237.100,296.114 238.200 M148.501 240.600 C 148.505 241.480,148.587 241.793,148.683 241.295 C 148.779 240.798,148.775 240.078,148.675 239.695 C 148.575 239.313,148.496 239.720,148.501 240.600 M104.514 247.000 C 104.517 248.100,104.595 248.503,104.687 247.895 C 104.779 247.286,104.777 246.386,104.682 245.895 C 104.587 245.403,104.511 245.900,104.514 247.000 M295.314 247.800 C 295.317 248.900,295.395 249.303,295.487 248.695 C 295.579 248.086,295.577 247.186,295.482 246.695 C 295.387 246.203,295.311 246.700,295.314 247.800 M149.301 249.000 C 149.305 249.880,149.387 250.193,149.483 249.695 C 149.579 249.198,149.575 248.478,149.475 248.095 C 149.375 247.713,149.296 248.120,149.301 249.000 M104.893 251.600 C 104.893 252.370,104.975 252.685,105.076 252.300 C 105.176 251.915,105.176 251.285,105.076 250.900 C 104.975 250.515,104.893 250.830,104.893 251.600 M149.693 252.400 C 149.693 253.170,149.775 253.485,149.876 253.100 C 149.976 252.715,149.976 252.085,149.876 251.700 C 149.775 251.315,149.693 251.630,149.693 252.400 M105.314 255.800 C 105.317 256.900,105.395 257.303,105.487 256.695 C 105.579 256.086,105.577 255.186,105.482 254.695 C 105.387 254.203,105.311 254.700,105.314 255.800 M294.520 256.400 C 294.520 257.610,294.595 258.105,294.687 257.500 C 294.778 256.895,294.778 255.905,294.687 255.300 C 294.595 254.695,294.520 255.190,294.520 256.400 M150.093 258.400 C 150.093 259.170,150.175 259.485,150.276 259.100 C 150.376 258.715,150.376 258.085,150.276 257.700 C 150.175 257.315,150.093 257.630,150.093 258.400 M106.120 264.400 C 106.120 265.610,106.195 266.105,106.287 265.500 C 106.378 264.895,106.378 263.905,106.287 263.300 C 106.195 262.695,106.120 263.190,106.120 264.400 M293.720 265.200 C 293.720 266.410,293.795 266.905,293.887 266.300 C 293.978 265.695,293.978 264.705,293.887 264.100 C 293.795 263.495,293.720 263.990,293.720 265.200 M106.920 274.000 C 106.920 275.210,106.995 275.705,107.087 275.100 C 107.178 274.495,107.178 273.505,107.087 272.900 C 106.995 272.295,106.920 272.790,106.920 274.000 M292.909 274.800 C 292.909 275.790,292.987 276.195,293.082 275.700 C 293.178 275.205,293.178 274.395,293.082 273.900 C 292.987 273.405,292.909 273.810,292.909 274.800 M107.720 282.800 C 107.720 284.010,107.795 284.505,107.887 283.900 C 107.978 283.295,107.978 282.305,107.887 281.700 C 107.795 281.095,107.720 281.590,107.720 282.800 M292.114 283.400 C 292.117 284.500,292.195 284.903,292.287 284.295 C 292.379 283.686,292.377 282.786,292.282 282.295 C 292.187 281.803,292.111 282.300,292.114 283.400 M108.509 292.400 C 108.509 293.390,108.587 293.795,108.682 293.300 C 108.778 292.805,108.778 291.995,108.682 291.500 C 108.587 291.005,108.509 291.410,108.509 292.400 M291.301 293.000 C 291.305 293.880,291.387 294.193,291.483 293.695 C 291.579 293.198,291.575 292.478,291.475 292.095 C 291.375 291.713,291.296 292.120,291.301 293.000 " stroke="none" fill="#73bbf4" fill-rule="evenodd"></path><path id="path3" d="M89.447 77.500 C 89.789 82.564,90.105 82.877,89.951 78.000 L 89.832 74.200 200.007 74.200 L 310.181 74.200 310.054 77.600 C 309.890 81.972,310.212 81.646,310.547 77.100 L 310.805 73.600 199.994 73.600 L 89.184 73.600 89.447 77.500 M309.482 83.550 C 309.327 84.293,309.224 86.002,309.253 87.350 L 309.306 89.800 309.653 86.600 C 310.030 83.118,309.934 81.392,309.482 83.550 M90.271 88.600 C 90.394 91.020,90.564 93.075,90.647 93.167 C 90.951 93.498,90.745 87.360,90.400 85.800 C 90.159 84.710,90.118 85.603,90.271 88.600 M308.682 92.350 C 308.527 93.093,308.424 94.803,308.453 96.150 L 308.506 98.600 308.853 95.400 C 309.230 91.918,309.134 90.192,308.682 92.350 M91.078 100.000 C 91.200 102.310,91.368 104.275,91.450 104.367 C 91.740 104.689,91.502 98.186,91.180 97.000 C 90.992 96.304,90.949 97.564,91.078 100.000 M307.872 101.404 C 307.727 102.282,307.632 104.170,307.659 105.600 C 307.707 108.043,307.731 107.971,308.051 104.400 C 308.412 100.376,308.314 98.731,307.872 101.404 M91.677 109.400 C 91.656 111.181,92.159 115.130,92.428 115.294 C 92.522 115.352,114.380 115.306,141.000 115.192 L 189.400 114.983 140.900 114.892 L 92.400 114.800 92.353 112.500 C 92.292 109.565,91.705 106.873,91.677 109.400 M307.072 110.204 C 306.927 111.082,306.832 112.970,306.859 114.400 C 306.907 116.843,306.931 116.771,307.251 113.200 C 307.612 109.176,307.514 107.531,307.072 110.204 M258.707 114.690 C 259.426 114.779,260.506 114.777,261.107 114.686 C 261.708 114.595,261.120 114.522,259.800 114.524 C 258.480 114.526,257.988 114.601,258.707 114.690 M262.936 117.723 L 262.871 120.600 263.276 118.060 C 263.498 116.663,263.527 115.369,263.340 115.184 C 263.153 114.998,262.971 116.141,262.936 117.723 M306.377 118.033 C 306.344 118.835,305.672 126.806,305.208 131.900 C 304.993 134.265,304.639 138.270,304.422 140.800 C 304.205 143.330,303.842 147.425,303.614 149.900 C 301.581 172.001,301.371 174.770,301.761 174.367 C 301.849 174.275,302.123 171.770,302.369 168.800 C 302.615 165.830,302.997 161.420,303.218 159.000 C 303.439 156.580,303.790 152.620,303.999 150.200 C 304.208 147.780,304.568 143.730,304.798 141.200 C 305.029 138.670,305.390 134.710,305.601 132.400 C 306.453 123.063,306.808 117.875,306.610 117.676 C 306.494 117.561,306.390 117.722,306.377 118.033 M262.478 123.200 C 262.432 124.630,262.312 127.060,262.212 128.600 L 262.031 131.400 262.422 129.000 C 262.637 127.680,262.757 125.250,262.687 123.600 L 262.561 120.600 262.478 123.200 M261.682 134.241 C 261.637 135.584,261.513 137.834,261.406 139.241 C 261.230 141.561,261.250 141.651,261.620 140.202 C 261.845 139.323,261.969 137.073,261.896 135.202 C 261.789 132.437,261.749 132.257,261.682 134.241 M260.878 144.800 C 260.832 146.010,260.711 148.260,260.608 149.800 C 260.429 152.492,260.438 152.525,260.827 150.659 C 261.050 149.592,261.171 147.342,261.097 145.659 C 260.986 143.170,260.945 143.010,260.878 144.800 M260.077 156.676 C 259.974 159.993,261.464 159.750,239.600 160.016 L 220.200 160.252 239.624 160.326 C 262.035 160.411,260.515 160.671,260.298 156.790 L 260.154 154.200 260.077 156.676 M166.000 160.800 L 146.600 161.012 168.800 161.051 C 181.010 161.072,194.690 160.968,199.200 160.819 L 207.400 160.548 196.400 160.568 C 190.350 160.579,176.670 160.684,166.000 160.800 M108.008 161.591 L 96.615 161.800 96.716 163.600 C 96.809 165.258,97.378 170.544,97.772 173.400 C 97.958 174.753,97.681 169.313,97.338 164.900 L 97.113 162.000 110.856 161.945 C 118.415 161.915,128.290 161.768,132.800 161.619 L 141.000 161.348 130.200 161.365 C 124.260 161.374,114.273 161.475,108.008 161.591 M98.231 177.400 C 98.497 181.403,99.215 188.260,99.615 190.600 C 100.364 194.995,99.373 183.917,98.416 177.200 L 98.045 174.600 98.231 177.400 M301.064 178.540 C 300.889 180.706,300.831 182.565,300.936 182.669 C 301.209 182.942,301.702 177.228,301.528 175.800 C 301.448 175.140,301.239 176.373,301.064 178.540 M300.264 187.340 C 300.089 189.506,300.031 191.365,300.136 191.469 C 300.409 191.742,300.902 186.028,300.728 184.600 C 300.648 183.940,300.439 185.173,300.264 187.340 M100.079 195.400 C 100.061 196.500,100.195 198.120,100.377 199.000 L 100.708 200.600 100.714 199.200 C 100.718 198.430,100.584 196.810,100.417 195.600 L 100.113 193.400 100.079 195.400 M299.395 196.911 C 299.243 198.327,299.196 199.826,299.291 200.242 C 299.385 200.659,299.605 199.597,299.780 197.882 C 299.955 196.167,300.001 194.668,299.884 194.551 C 299.766 194.433,299.546 195.495,299.395 196.911 M100.900 202.100 L 101.000 203.400 178.526 203.242 L 256.053 203.083 255.830 205.642 C 255.642 207.804,255.673 207.992,256.026 206.858 C 256.256 206.120,256.389 204.950,256.322 204.258 L 256.200 203.000 178.719 203.018 L 101.238 203.036 101.019 201.918 C 100.829 200.946,100.813 200.970,100.900 202.100 M298.611 205.668 C 298.446 207.355,298.397 208.975,298.501 209.268 C 298.606 209.561,298.825 208.419,298.989 206.732 C 299.154 205.045,299.203 203.425,299.099 203.132 C 298.994 202.839,298.775 203.981,298.611 205.668 M255.038 212.325 C 254.861 213.713,254.811 214.945,254.928 215.061 C 255.230 215.364,255.703 211.914,255.516 210.763 C 255.429 210.224,255.219 210.911,255.038 212.325 M297.796 214.509 C 297.643 216.141,297.592 217.819,297.684 218.238 C 297.776 218.657,297.991 217.412,298.163 215.472 C 298.336 213.531,298.386 211.853,298.275 211.742 C 298.164 211.631,297.949 212.876,297.796 214.509 M254.262 219.142 C 254.091 220.540,254.038 221.772,254.145 221.879 C 254.432 222.165,254.897 218.685,254.722 217.563 C 254.640 217.033,254.433 217.744,254.262 219.142 M297.099 222.600 C 296.939 223.480,296.829 225.010,296.853 226.000 C 296.897 227.760,296.906 227.747,297.256 225.400 C 297.689 222.504,297.554 220.094,297.099 222.600 M253.440 226.931 C 253.269 228.434,253.221 229.754,253.332 229.865 C 253.611 230.144,254.117 225.881,253.915 224.953 C 253.825 224.539,253.611 225.429,253.440 226.931 M103.200 227.897 C 103.200 228.063,112.695 228.149,124.300 228.087 C 147.584 227.963,147.069 227.932,147.330 229.501 C 147.466 230.321,147.498 230.244,147.456 229.200 L 147.400 227.800 125.300 227.697 C 113.145 227.640,103.200 227.730,103.200 227.897 M103.280 230.400 C 103.268 231.390,103.403 233.010,103.580 234.000 L 103.900 235.800 103.920 234.000 C 103.932 233.010,103.797 231.390,103.620 230.400 L 103.300 228.600 103.280 230.400 M296.299 231.400 C 296.139 232.280,296.029 233.810,296.053 234.800 C 296.097 236.560,296.106 236.547,296.456 234.200 C 296.889 231.304,296.754 228.894,296.299 231.400 M252.587 234.187 C 252.431 235.644,252.399 236.932,252.516 237.050 C 252.634 237.167,252.857 236.071,253.013 234.613 C 253.169 233.156,253.201 231.868,253.084 231.750 C 252.966 231.633,252.743 232.729,252.587 234.187 M147.688 234.400 C 147.678 235.390,147.810 237.100,147.982 238.200 L 148.293 240.200 148.312 238.400 C 148.322 237.410,148.190 235.700,148.018 234.600 L 147.707 232.600 147.688 234.400 M104.082 240.000 C 104.076 240.770,104.210 242.300,104.382 243.400 L 104.693 245.400 104.699 243.200 C 104.703 241.990,104.568 240.460,104.400 239.800 L 104.095 238.600 104.082 240.000 M251.796 241.709 C 251.643 243.341,251.591 245.019,251.680 245.438 C 251.770 245.857,251.979 244.606,252.146 242.658 C 252.312 240.709,252.364 239.031,252.261 238.928 C 252.158 238.825,251.949 240.076,251.796 241.709 M295.494 240.600 C 295.337 241.480,295.230 243.100,295.255 244.200 C 295.299 246.111,295.317 246.075,295.663 243.400 C 296.069 240.253,295.939 238.100,295.494 240.600 M148.473 243.600 C 148.458 244.590,148.595 246.120,148.777 247.000 L 149.108 248.600 149.124 247.000 C 149.133 246.120,148.997 244.590,148.820 243.600 L 148.500 241.800 148.473 243.600 M250.995 248.911 C 250.843 250.327,250.792 251.826,250.880 252.242 C 250.969 252.659,251.177 251.584,251.342 249.854 C 251.507 248.124,251.558 246.625,251.456 246.523 C 251.354 246.421,251.146 247.495,250.995 248.911 M105.074 250.600 C 105.197 252.360,105.365 253.875,105.449 253.967 C 105.732 254.279,105.507 249.805,105.178 248.600 C 104.978 247.864,104.937 248.638,105.074 250.600 M294.682 249.150 C 294.527 249.893,294.423 251.423,294.451 252.550 C 294.500 254.561,294.508 254.547,294.860 251.800 C 295.252 248.743,295.134 246.988,294.682 249.150 M149.283 252.000 C 149.270 252.990,149.403 254.610,149.580 255.600 L 149.900 257.400 149.915 255.800 C 149.923 254.920,149.790 253.300,149.618 252.200 L 149.307 250.200 149.283 252.000 M250.195 256.111 C 250.043 257.527,249.992 259.026,250.080 259.442 C 250.169 259.859,250.377 258.784,250.542 257.054 C 250.707 255.324,250.758 253.825,250.656 253.723 C 250.554 253.621,250.346 254.695,250.195 256.111 M105.675 257.400 C 105.672 258.060,105.810 259.500,105.982 260.600 L 106.293 262.600 106.307 260.400 C 106.314 259.190,106.176 257.750,106.000 257.200 C 105.688 256.226,105.680 256.232,105.675 257.400 M293.882 257.950 C 293.727 258.693,293.623 260.223,293.651 261.350 C 293.700 263.361,293.708 263.347,294.060 260.600 C 294.452 257.543,294.334 255.788,293.882 257.950 M150.049 261.200 C 149.994 263.876,150.654 264.830,153.000 265.461 C 154.100 265.757,155.540 266.164,156.200 266.367 C 157.938 266.899,160.234 267.329,159.998 267.078 C 159.807 266.874,154.801 265.442,152.200 264.847 C 151.085 264.592,150.967 264.389,150.543 261.986 C 150.104 259.499,150.085 259.469,150.049 261.200 M249.664 261.674 C 249.547 263.637,248.916 264.690,247.729 264.904 C 245.973 265.221,240.228 266.837,240.002 267.078 C 239.609 267.497,243.963 266.443,246.319 265.549 C 246.824 265.357,247.585 265.200,248.010 265.200 C 249.117 265.200,250.087 263.514,249.891 261.928 C 249.754 260.812,249.718 260.772,249.664 261.674 M106.666 268.600 C 106.793 270.360,106.965 271.875,107.049 271.967 C 107.351 272.299,107.111 267.373,106.778 266.400 C 106.566 265.780,106.523 266.615,106.666 268.600 M293.082 267.150 C 292.927 267.893,292.824 269.603,292.853 270.950 L 292.906 273.400 293.253 270.200 C 293.630 266.718,293.534 264.992,293.082 267.150 M161.000 267.600 C 162.196 268.114,163.195 268.114,162.400 267.600 C 162.070 267.387,161.440 267.222,161.000 267.234 L 160.200 267.256 161.000 267.600 M236.000 268.026 C 234.568 268.513,234.286 268.691,235.191 268.535 C 237.178 268.194,239.951 267.279,239.000 267.279 C 238.560 267.279,237.210 267.615,236.000 268.026 M163.800 268.400 C 164.240 268.589,164.960 268.744,165.400 268.744 L 166.200 268.744 165.400 268.400 C 164.960 268.211,164.240 268.056,163.800 268.056 L 163.000 268.056 163.800 268.400 M167.000 269.200 C 168.196 269.714,169.195 269.714,168.400 269.200 C 168.070 268.987,167.440 268.822,167.000 268.834 L 166.200 268.856 167.000 269.200 M231.600 269.200 C 231.067 269.545,231.067 269.588,231.600 269.588 C 231.930 269.588,232.470 269.413,232.800 269.200 C 233.333 268.855,233.333 268.812,232.800 268.812 C 232.470 268.812,231.930 268.987,231.600 269.200 M169.800 270.000 C 170.240 270.189,170.960 270.344,171.400 270.344 L 172.200 270.344 171.400 270.000 C 170.960 269.811,170.240 269.656,169.800 269.656 L 169.000 269.656 169.800 270.000 M228.600 270.000 L 227.800 270.344 228.600 270.366 C 229.040 270.378,229.670 270.213,230.000 270.000 C 230.795 269.486,229.796 269.486,228.600 270.000 M173.000 270.800 C 173.440 270.989,174.070 271.144,174.400 271.144 C 174.778 271.144,174.704 271.017,174.200 270.800 C 173.760 270.611,173.130 270.456,172.800 270.456 C 172.422 270.456,172.496 270.583,173.000 270.800 M225.800 270.800 C 225.296 271.017,225.222 271.144,225.600 271.144 C 225.930 271.144,226.560 270.989,227.000 270.800 C 227.504 270.583,227.578 270.456,227.200 270.456 C 226.870 270.456,226.240 270.611,225.800 270.800 M176.000 271.600 C 176.330 271.813,176.960 271.978,177.400 271.966 L 178.200 271.944 177.400 271.600 C 176.204 271.086,175.205 271.086,176.000 271.600 M222.600 271.600 L 221.800 271.944 222.600 271.966 C 223.040 271.978,223.670 271.813,224.000 271.600 C 224.795 271.086,223.796 271.086,222.600 271.600 M178.800 272.400 C 179.130 272.613,179.760 272.778,180.200 272.766 L 181.000 272.744 180.200 272.400 C 179.004 271.886,178.005 271.886,178.800 272.400 M219.800 272.400 L 219.000 272.744 219.800 272.766 C 220.240 272.778,220.870 272.613,221.200 272.400 C 221.995 271.886,220.996 271.886,219.800 272.400 M182.000 273.200 C 182.330 273.413,182.960 273.578,183.400 273.566 L 184.200 273.544 183.400 273.200 C 182.204 272.686,181.205 272.686,182.000 273.200 M216.600 273.200 L 215.800 273.544 216.600 273.566 C 217.040 273.578,217.670 273.413,218.000 273.200 C 218.795 272.686,217.796 272.686,216.600 273.200 M184.800 274.000 C 185.130 274.213,185.760 274.378,186.200 274.366 L 187.000 274.344 186.200 274.000 C 185.004 273.486,184.005 273.486,184.800 274.000 M213.800 274.000 L 213.000 274.344 213.800 274.366 C 214.240 274.378,214.870 274.213,215.200 274.000 C 215.995 273.486,214.996 273.486,213.800 274.000 M107.466 277.400 C 107.593 279.160,107.765 280.675,107.849 280.767 C 108.151 281.099,107.911 276.173,107.578 275.200 C 107.366 274.580,107.323 275.415,107.466 277.400 M187.790 274.784 C 187.932 275.013,188.517 275.200,189.090 275.200 C 190.344 275.200,190.199 275.008,188.666 274.640 C 187.923 274.462,187.621 274.511,187.790 274.784 M210.800 274.800 C 209.976 275.064,209.941 275.126,210.600 275.154 C 211.040 275.173,211.670 275.013,212.000 274.800 C 212.701 274.347,212.214 274.347,210.800 274.800 M292.269 275.956 C 292.121 276.695,292.024 278.313,292.053 279.550 C 292.104 281.690,292.123 281.644,292.448 278.600 C 292.812 275.188,292.713 273.733,292.269 275.956 M190.800 275.600 C 191.130 275.813,191.760 275.978,192.200 275.966 L 193.000 275.944 192.200 275.600 C 191.004 275.086,190.005 275.086,190.800 275.600 M207.800 275.600 L 207.000 275.944 207.800 275.966 C 208.240 275.978,208.870 275.813,209.200 275.600 C 209.995 275.086,208.996 275.086,207.800 275.600 M193.800 276.400 C 193.936 276.620,194.442 276.787,194.924 276.772 C 195.769 276.745,195.771 276.731,195.000 276.400 C 193.899 275.927,193.508 275.927,193.800 276.400 M204.800 276.400 L 203.800 276.720 204.876 276.760 C 205.468 276.782,206.064 276.620,206.200 276.400 C 206.481 275.945,206.220 275.945,204.800 276.400 M196.590 277.184 C 196.732 277.413,197.317 277.600,197.890 277.600 C 199.144 277.600,198.999 277.408,197.466 277.040 C 196.723 276.862,196.421 276.911,196.590 277.184 M201.000 277.416 L 199.000 277.956 200.800 277.733 C 201.790 277.610,202.870 277.356,203.200 277.167 C 204.014 276.702,203.382 276.774,201.000 277.416 M108.291 286.800 C 108.411 288.890,108.574 290.675,108.654 290.767 C 108.933 291.086,108.703 285.392,108.389 284.200 C 108.209 283.518,108.167 284.641,108.291 286.800 M291.472 284.604 C 291.327 285.482,291.232 287.460,291.260 289.000 C 291.310 291.700,291.324 291.657,291.648 287.800 C 292.004 283.569,291.914 281.932,291.472 284.604 M290.659 293.488 C 290.521 294.319,290.407 295.743,290.404 296.650 C 290.400 298.185,290.309 298.320,289.100 298.587 C 288.385 298.745,287.998 298.954,288.239 299.051 C 289.809 299.678,290.697 298.499,290.987 295.399 C 291.291 292.162,291.080 290.938,290.659 293.488 M108.870 293.400 C 108.864 294.060,109.003 295.410,109.180 296.400 L 109.500 298.200 109.510 296.200 C 109.516 295.100,109.376 293.750,109.200 293.200 C 108.888 292.225,108.879 292.230,108.870 293.400 M110.200 298.800 C 111.396 299.314,112.395 299.314,111.600 298.800 C 111.270 298.587,110.640 298.422,110.200 298.434 L 109.400 298.456 110.200 298.800 M113.000 299.600 C 114.196 300.114,115.195 300.114,114.400 299.600 C 114.070 299.387,113.440 299.222,113.000 299.234 L 112.200 299.256 113.000 299.600 M285.600 299.600 C 284.805 300.114,285.804 300.114,287.000 299.600 L 287.800 299.256 287.000 299.234 C 286.560 299.222,285.930 299.387,285.600 299.600 M116.200 300.347 C 117.578 300.948,119.832 301.601,120.428 301.572 C 120.743 301.556,120.364 301.309,119.586 301.022 C 117.884 300.395,114.985 299.817,116.200 300.347 M282.600 300.400 L 281.800 300.744 282.600 300.766 C 283.040 300.778,283.670 300.613,284.000 300.400 C 284.795 299.886,283.796 299.886,282.600 300.400 M279.800 301.200 L 279.000 301.544 279.800 301.566 C 280.240 301.578,280.870 301.413,281.200 301.200 C 281.995 300.686,280.996 300.686,279.800 301.200 M121.233 301.751 C 121.325 301.834,123.110 302.375,125.200 302.954 C 129.484 304.140,131.650 304.748,133.400 305.257 C 137.913 306.571,144.638 308.400,144.954 308.400 C 145.681 308.400,144.854 307.928,143.532 307.588 C 142.799 307.399,141.570 307.067,140.800 306.850 C 140.030 306.633,137.960 306.070,136.200 305.600 C 134.440 305.130,132.460 304.587,131.800 304.395 C 131.140 304.203,129.880 303.845,129.000 303.600 C 128.120 303.355,126.815 302.985,126.100 302.777 C 122.664 301.780,120.841 301.395,121.233 301.751 M276.600 302.015 C 275.940 302.198,274.770 302.530,274.000 302.752 C 270.714 303.698,269.341 304.068,268.400 304.258 C 267.850 304.369,267.040 304.614,266.600 304.803 C 266.160 304.991,264.630 305.442,263.200 305.805 C 261.770 306.167,260.015 306.629,259.300 306.832 C 258.585 307.034,257.356 307.364,256.568 307.565 C 255.166 307.923,254.295 308.400,255.046 308.400 C 255.255 308.400,257.670 307.769,260.413 306.997 C 263.156 306.226,266.120 305.395,267.000 305.151 C 267.880 304.907,269.050 304.569,269.600 304.400 C 270.150 304.231,271.320 303.895,272.200 303.653 C 276.136 302.572,278.951 301.675,278.400 301.678 C 278.070 301.680,277.260 301.832,276.600 302.015 M145.633 308.544 C 146.105 308.950,148.043 309.193,147.810 308.816 C 147.668 308.587,147.083 308.400,146.510 308.400 C 145.936 308.400,145.542 308.465,145.633 308.544 M252.190 308.816 C 252.021 309.089,252.323 309.138,253.066 308.960 C 254.599 308.592,254.744 308.400,253.490 308.400 C 252.917 308.400,252.332 308.587,252.190 308.816 M148.433 309.344 C 148.905 309.750,150.843 309.993,150.610 309.616 C 150.468 309.387,149.883 309.200,149.310 309.200 C 148.736 309.200,148.342 309.265,148.433 309.344 M249.390 309.616 C 249.221 309.889,249.523 309.938,250.266 309.760 C 251.799 309.392,251.944 309.200,250.690 309.200 C 250.117 309.200,249.532 309.387,249.390 309.616 M152.000 310.400 C 153.542 310.894,154.364 310.894,153.600 310.400 C 153.270 310.187,152.550 310.027,152.000 310.046 L 151.000 310.080 152.000 310.400 M246.400 310.400 C 245.636 310.894,246.458 310.894,248.000 310.400 L 249.000 310.080 248.000 310.046 C 247.450 310.027,246.730 310.187,246.400 310.400 M155.000 311.200 C 156.101 311.673,156.492 311.673,156.200 311.200 C 156.064 310.980,155.558 310.813,155.076 310.828 C 154.231 310.855,154.229 310.869,155.000 311.200 M243.800 311.200 C 243.508 311.673,243.899 311.673,245.000 311.200 C 245.771 310.869,245.769 310.855,244.924 310.828 C 244.442 310.813,243.936 310.980,243.800 311.200 M157.800 312.000 C 158.996 312.514,159.995 312.514,159.200 312.000 C 158.870 311.787,158.240 311.622,157.800 311.634 L 157.000 311.656 157.800 312.000 M240.800 312.000 C 240.005 312.514,241.004 312.514,242.200 312.000 L 243.000 311.656 242.200 311.634 C 241.760 311.622,241.130 311.787,240.800 312.000 M160.800 312.800 C 161.130 313.013,161.670 313.188,162.000 313.188 C 162.533 313.188,162.533 313.145,162.000 312.800 C 161.670 312.587,161.130 312.412,160.800 312.412 C 160.267 312.412,160.267 312.455,160.800 312.800 M237.800 312.800 C 237.508 313.273,237.899 313.273,239.000 312.800 C 239.771 312.469,239.769 312.455,238.924 312.428 C 238.442 312.413,237.936 312.580,237.800 312.800 M163.600 313.600 C 163.930 313.813,164.470 313.988,164.800 313.988 C 165.333 313.988,165.333 313.945,164.800 313.600 C 164.470 313.387,163.930 313.212,163.600 313.212 C 163.067 313.212,163.067 313.255,163.600 313.600 M166.600 314.400 C 167.040 314.589,167.670 314.744,168.000 314.744 C 168.378 314.744,168.304 314.617,167.800 314.400 C 167.360 314.211,166.730 314.056,166.400 314.056 C 166.022 314.056,166.096 314.183,166.600 314.400 M232.000 314.400 C 231.205 314.914,232.204 314.914,233.400 314.400 L 234.200 314.056 233.400 314.034 C 232.960 314.022,232.330 314.187,232.000 314.400 M169.400 315.200 C 170.596 315.714,171.595 315.714,170.800 315.200 C 170.470 314.987,169.840 314.822,169.400 314.834 L 168.600 314.856 169.400 315.200 M229.200 315.200 C 228.667 315.545,228.667 315.588,229.200 315.588 C 229.530 315.588,230.070 315.413,230.400 315.200 C 230.933 314.855,230.933 314.812,230.400 314.812 C 230.070 314.812,229.530 314.987,229.200 315.200 M172.200 316.000 C 173.396 316.514,174.395 316.514,173.600 316.000 C 173.270 315.787,172.640 315.622,172.200 315.634 L 171.400 315.656 172.200 316.000 M226.200 316.000 L 225.400 316.344 226.200 316.366 C 226.640 316.378,227.270 316.213,227.600 316.000 C 228.395 315.486,227.396 315.486,226.200 316.000 M174.902 316.635 C 175.031 316.764,175.826 317.044,176.668 317.258 C 177.511 317.471,178.740 317.803,179.400 317.995 C 180.060 318.187,182.040 318.730,183.800 319.200 C 185.560 319.670,187.540 320.207,188.200 320.392 C 188.860 320.577,190.750 321.097,192.400 321.548 C 194.050 321.999,196.300 322.643,197.400 322.980 C 198.500 323.316,199.760 323.575,200.200 323.555 C 200.738 323.530,200.607 323.409,199.800 323.185 C 199.140 323.002,197.970 322.670,197.200 322.448 C 194.421 321.648,192.574 321.140,191.200 320.800 C 190.430 320.609,189.170 320.277,188.400 320.061 C 187.630 319.846,185.920 319.375,184.600 319.015 C 183.280 318.654,180.678 317.919,178.817 317.380 C 175.381 316.384,174.480 316.213,174.902 316.635 M220.400 317.635 C 218.310 318.281,217.140 318.719,217.800 318.610 C 219.458 318.335,224.884 316.849,225.131 316.602 C 225.556 316.178,224.066 316.503,220.400 317.635 M214.600 319.189 C 213.434 319.488,208.223 320.924,205.800 321.613 C 205.140 321.801,203.911 322.129,203.068 322.342 C 202.226 322.556,201.416 322.850,201.269 322.998 C 200.935 323.331,202.267 323.027,207.600 321.551 C 209.910 320.912,212.520 320.193,213.400 319.952 C 215.231 319.452,216.792 318.847,216.200 318.868 C 215.980 318.876,215.260 319.020,214.600 319.189 " stroke="none" fill="#a7d3f6" fill-rule="evenodd"></path><path id="path4" d="M88.964 73.751 C 88.847 74.054,88.811 75.179,88.884 76.251 L 89.015 78.200 89.208 75.699 C 89.402 73.173,89.349 72.747,88.964 73.751 M310.901 76.200 C 310.905 77.080,310.987 77.393,311.083 76.895 C 311.179 76.398,311.175 75.678,311.075 75.295 C 310.975 74.913,310.896 75.320,310.901 76.200 M310.054 85.200 C 310.019 85.750,309.896 86.650,309.783 87.200 L 309.577 88.200 310.007 87.215 C 310.243 86.674,310.365 85.774,310.278 85.215 L 310.120 84.200 310.054 85.200 M89.709 88.400 C 89.709 89.390,89.787 89.795,89.882 89.300 C 89.978 88.805,89.978 87.995,89.882 87.500 C 89.787 87.005,89.709 87.410,89.709 88.400 M309.254 94.000 C 309.219 94.550,309.096 95.450,308.983 96.000 L 308.777 97.000 309.207 96.015 C 309.443 95.474,309.565 94.574,309.478 94.015 L 309.320 93.000 309.254 94.000 M90.514 99.800 C 90.517 100.900,90.595 101.303,90.687 100.695 C 90.779 100.086,90.777 99.186,90.682 98.695 C 90.587 98.203,90.511 98.700,90.514 99.800 M308.493 103.200 C 308.493 103.970,308.575 104.285,308.676 103.900 C 308.776 103.515,308.776 102.885,308.676 102.500 C 308.575 102.115,308.493 102.430,308.493 103.200 M91.309 111.200 C 91.309 112.190,91.387 112.595,91.482 112.100 C 91.578 111.605,91.578 110.795,91.482 110.300 C 91.387 109.805,91.309 110.210,91.309 111.200 M174.900 115.500 C 181.005 115.562,190.995 115.562,197.100 115.500 C 203.205 115.438,198.210 115.387,186.000 115.387 C 173.790 115.387,168.795 115.438,174.900 115.500 M99.726 115.900 C 103.866 115.965,110.526 115.965,114.526 115.899 C 118.527 115.834,115.140 115.781,107.000 115.781 C 98.860 115.781,95.587 115.834,99.726 115.900 M261.693 127.200 C 261.693 127.970,261.775 128.285,261.876 127.900 C 261.976 127.515,261.976 126.885,261.876 126.500 C 261.775 126.115,261.693 126.430,261.693 127.200 M260.893 137.600 C 260.893 138.370,260.975 138.685,261.076 138.300 C 261.176 137.915,261.176 137.285,261.076 136.900 C 260.975 136.515,260.893 136.830,260.893 137.600 M260.101 148.600 C 260.105 149.480,260.187 149.793,260.283 149.295 C 260.379 148.798,260.375 148.078,260.275 147.695 C 260.175 147.313,260.096 147.720,260.101 148.600 M259.200 158.526 C 259.200 159.114,258.252 159.197,250.300 159.300 L 241.400 159.416 250.313 159.508 C 259.214 159.600,260.706 159.373,259.449 158.116 C 259.312 157.979,259.200 158.163,259.200 158.526 M303.293 159.600 C 303.293 160.370,303.375 160.685,303.476 160.300 C 303.576 159.915,303.576 159.285,303.476 158.900 C 303.375 158.515,303.293 158.830,303.293 159.600 M233.300 159.896 C 234.565 159.975,236.635 159.975,237.900 159.896 C 239.165 159.816,238.130 159.751,235.600 159.751 C 233.070 159.751,232.035 159.816,233.300 159.896 M179.900 160.299 C 182.375 160.369,186.425 160.369,188.900 160.299 C 191.375 160.228,189.350 160.171,184.400 160.171 C 179.450 160.171,177.425 160.228,179.900 160.299 M163.500 160.696 C 164.875 160.774,167.125 160.774,168.500 160.696 C 169.875 160.618,168.750 160.554,166.000 160.554 C 163.250 160.554,162.125 160.618,163.500 160.696 M111.121 161.099 C 113.388 161.170,116.988 161.170,119.121 161.098 C 121.255 161.026,119.400 160.968,115.000 160.968 C 110.600 160.968,108.855 161.027,111.121 161.099 M99.113 161.495 C 100.276 161.576,102.076 161.576,103.113 161.493 C 104.151 161.411,103.200 161.345,101.000 161.346 C 98.800 161.347,97.951 161.414,99.113 161.495 M302.493 168.400 C 302.493 169.170,302.575 169.485,302.676 169.100 C 302.776 168.715,302.776 168.085,302.676 167.700 C 302.575 167.315,302.493 167.630,302.493 168.400 M301.714 178.600 C 301.717 179.700,301.795 180.103,301.887 179.495 C 301.979 178.886,301.977 177.986,301.882 177.495 C 301.787 177.003,301.711 177.500,301.714 178.600 M300.914 187.000 C 300.917 188.100,300.995 188.503,301.087 187.895 C 301.179 187.286,301.177 186.386,301.082 185.895 C 300.987 185.403,300.911 185.900,300.914 187.000 M98.893 188.000 C 98.893 188.770,98.975 189.085,99.076 188.700 C 99.176 188.315,99.176 187.685,99.076 187.300 C 98.975 186.915,98.893 187.230,98.893 188.000 M300.114 195.800 C 300.117 196.900,300.195 197.303,300.287 196.695 C 300.379 196.086,300.377 195.186,300.282 194.695 C 300.187 194.203,300.111 194.700,300.114 195.800 M219.500 203.500 C 226.155 203.561,237.045 203.561,243.700 203.500 C 250.355 203.438,244.910 203.388,231.600 203.388 C 218.290 203.388,212.845 203.438,219.500 203.500 M135.729 203.900 C 143.611 203.961,156.391 203.961,164.129 203.900 C 171.868 203.839,165.420 203.789,149.800 203.790 C 134.180 203.790,127.848 203.839,135.729 203.900 M299.320 205.600 C 299.320 206.810,299.395 207.305,299.487 206.700 C 299.578 206.095,299.578 205.105,299.487 204.500 C 299.395 203.895,299.320 204.390,299.320 205.600 M255.293 205.600 C 255.293 206.370,255.375 206.685,255.476 206.300 C 255.576 205.915,255.576 205.285,255.476 204.900 C 255.375 204.515,255.293 204.830,255.293 205.600 M254.493 212.800 C 254.493 213.570,254.575 213.885,254.676 213.500 C 254.776 213.115,254.776 212.485,254.676 212.100 C 254.575 211.715,254.493 212.030,254.493 212.800 M298.520 214.400 C 298.520 215.610,298.595 216.105,298.687 215.500 C 298.778 214.895,298.778 213.905,298.687 213.300 C 298.595 212.695,298.520 213.190,298.520 214.400 M253.709 220.800 C 253.709 221.790,253.787 222.195,253.882 221.700 C 253.978 221.205,253.978 220.395,253.882 219.900 C 253.787 219.405,253.709 219.810,253.709 220.800 M297.709 224.000 C 297.709 224.990,297.787 225.395,297.882 224.900 C 297.978 224.405,297.978 223.595,297.882 223.100 C 297.787 222.605,297.709 223.010,297.709 224.000 M252.901 227.800 C 252.905 228.680,252.987 228.993,253.083 228.495 C 253.179 227.998,253.175 227.278,253.075 226.895 C 252.975 226.513,252.896 226.920,252.901 227.800 M102.914 231.800 C 102.917 232.900,102.995 233.303,103.087 232.695 C 103.179 232.086,103.177 231.186,103.082 230.695 C 102.987 230.203,102.911 230.700,102.914 231.800 M296.909 232.800 C 296.909 233.790,296.987 234.195,297.082 233.700 C 297.178 233.205,297.178 232.395,297.082 231.900 C 296.987 231.405,296.909 231.810,296.909 232.800 M252.101 235.000 C 252.105 235.880,252.187 236.193,252.283 235.695 C 252.379 235.198,252.375 234.478,252.275 234.095 C 252.175 233.713,252.096 234.120,252.101 235.000 M148.520 237.200 C 148.520 238.410,148.595 238.905,148.687 238.300 C 148.778 237.695,148.778 236.705,148.687 236.100 C 148.595 235.495,148.520 235.990,148.520 237.200 M103.714 240.600 C 103.717 241.700,103.795 242.103,103.887 241.495 C 103.979 240.886,103.977 239.986,103.882 239.495 C 103.787 239.003,103.711 239.500,103.714 240.600 M296.109 241.600 C 296.109 242.590,296.187 242.995,296.282 242.500 C 296.378 242.005,296.378 241.195,296.282 240.700 C 296.187 240.205,296.109 240.610,296.109 241.600 M251.301 243.000 C 251.305 243.880,251.387 244.193,251.483 243.695 C 251.579 243.198,251.575 242.478,251.475 242.095 C 251.375 241.713,251.296 242.120,251.301 243.000 M149.314 245.800 C 149.317 246.900,149.395 247.303,149.487 246.695 C 149.579 246.086,149.577 245.186,149.482 244.695 C 149.387 244.203,149.311 244.700,149.314 245.800 M250.509 250.000 C 250.509 250.990,250.587 251.395,250.682 250.900 C 250.778 250.405,250.778 249.595,250.682 249.100 C 250.587 248.605,250.509 249.010,250.509 250.000 M104.509 250.400 C 104.509 251.390,104.587 251.795,104.682 251.300 C 104.778 250.805,104.778 249.995,104.682 249.500 C 104.587 249.005,104.509 249.410,104.509 250.400 M295.301 251.000 C 295.305 251.880,295.387 252.193,295.483 251.695 C 295.579 251.198,295.575 250.478,295.475 250.095 C 295.375 249.713,295.296 250.120,295.301 251.000 M150.109 255.600 C 150.109 256.590,150.187 256.995,150.282 256.500 C 150.378 256.005,150.378 255.195,150.282 254.700 C 150.187 254.205,150.109 254.610,150.109 255.600 M105.301 259.000 C 105.305 259.880,105.387 260.193,105.483 259.695 C 105.579 259.198,105.575 258.478,105.475 258.095 C 105.375 257.713,105.296 258.120,105.301 259.000 M294.501 259.800 C 294.505 260.680,294.587 260.993,294.683 260.495 C 294.779 259.998,294.775 259.278,294.675 258.895 C 294.575 258.513,294.496 258.920,294.501 259.800 M106.101 267.800 C 106.105 268.680,106.187 268.993,106.283 268.495 C 106.379 267.998,106.375 267.278,106.275 266.895 C 106.175 266.513,106.096 266.920,106.101 267.800 M293.693 268.400 C 293.693 269.170,293.775 269.485,293.876 269.100 C 293.976 268.715,293.976 268.085,293.876 267.700 C 293.775 267.315,293.693 267.630,293.693 268.400 M106.901 277.400 C 106.905 278.280,106.987 278.593,107.083 278.095 C 107.179 277.598,107.175 276.878,107.075 276.495 C 106.975 276.113,106.896 276.520,106.901 277.400 M292.893 277.600 C 292.893 278.370,292.975 278.685,293.076 278.300 C 293.176 277.915,293.176 277.285,293.076 276.900 C 292.975 276.515,292.893 276.830,292.893 277.600 M107.701 286.200 C 107.705 287.080,107.787 287.393,107.883 286.895 C 107.979 286.398,107.975 285.678,107.875 285.295 C 107.775 284.913,107.696 285.320,107.701 286.200 M292.054 286.000 C 292.019 286.550,291.896 287.450,291.783 288.000 L 291.577 289.000 292.007 288.015 C 292.243 287.474,292.365 286.574,292.278 286.015 L 292.120 285.000 292.054 286.000 M108.493 295.200 C 108.493 295.970,108.575 296.285,108.676 295.900 C 108.776 295.515,108.776 294.885,108.676 294.500 C 108.575 294.115,108.493 294.430,108.493 295.200 M291.254 295.200 C 291.219 295.750,291.096 296.650,290.983 297.200 L 290.777 298.200 291.207 297.215 C 291.443 296.674,291.565 295.774,291.478 295.215 L 291.320 294.200 291.254 295.200 " stroke="none" fill="#4dacf4" fill-rule="evenodd"></path><path id="path5" d="M310.849 78.000 C 310.816 78.330,310.689 79.050,310.567 79.600 C 310.375 80.464,310.407 80.503,310.799 79.888 C 311.048 79.497,311.175 78.777,311.081 78.288 C 310.986 77.800,310.882 77.670,310.849 78.000 M88.806 79.433 C 88.809 80.295,88.988 81.270,89.203 81.600 C 89.470 82.010,89.514 81.565,89.341 80.200 C 89.025 77.705,88.798 77.381,88.806 79.433 M309.829 87.829 C 309.681 88.415,309.651 88.984,309.761 89.094 C 309.871 89.204,310.081 88.815,310.229 88.229 C 310.376 87.642,310.406 87.073,310.296 86.963 C 310.186 86.853,309.976 87.242,309.829 87.829 M89.606 91.233 C 89.609 91.985,89.792 92.870,90.012 93.200 C 90.291 93.619,90.333 93.258,90.150 92.000 C 89.825 89.759,89.598 89.440,89.606 91.233 M309.029 96.629 C 308.881 97.215,308.851 97.784,308.961 97.894 C 309.071 98.004,309.281 97.615,309.429 97.029 C 309.576 96.442,309.606 95.873,309.496 95.763 C 309.386 95.653,309.176 96.042,309.029 96.629 M90.406 102.633 C 90.409 103.275,90.596 104.070,90.821 104.400 C 91.114 104.830,91.154 104.546,90.962 103.400 C 90.630 101.416,90.398 101.096,90.406 102.633 M308.222 105.822 C 308.072 106.625,308.028 107.362,308.126 107.460 C 308.224 107.557,308.427 106.981,308.578 106.178 C 308.728 105.375,308.772 104.638,308.674 104.540 C 308.576 104.443,308.373 105.019,308.222 105.822 M91.241 113.851 C 91.217 114.584,91.480 115.329,91.877 115.651 C 92.454 116.119,92.503 116.117,92.213 115.635 C 92.026 115.324,91.739 114.514,91.577 113.835 L 91.282 112.600 91.241 113.851 M307.422 114.622 C 307.272 115.425,307.228 116.162,307.326 116.260 C 307.424 116.357,307.627 115.781,307.778 114.978 C 307.928 114.175,307.972 113.438,307.874 113.340 C 307.776 113.243,307.573 113.819,307.422 114.622 M164.800 115.600 L 121.400 115.805 164.000 115.847 C 187.430 115.870,214.790 115.769,224.800 115.622 L 243.000 115.355 225.600 115.375 C 216.030 115.386,188.670 115.487,164.800 115.600 M306.622 123.422 C 306.472 124.225,306.428 124.962,306.526 125.060 C 306.624 125.157,306.827 124.581,306.978 123.778 C 307.128 122.975,307.172 122.238,307.074 122.140 C 306.976 122.043,306.773 122.619,306.622 123.422 M261.800 124.000 C 261.646 124.910,261.604 125.738,261.707 125.840 C 261.810 125.943,262.013 125.277,262.160 124.360 C 262.307 123.443,262.348 122.615,262.253 122.520 C 262.158 122.424,261.954 123.090,261.800 124.000 M261.000 134.400 C 260.846 135.310,260.804 136.138,260.907 136.240 C 261.010 136.343,261.213 135.677,261.360 134.760 C 261.507 133.843,261.548 133.015,261.453 132.920 C 261.358 132.824,261.154 133.490,261.000 134.400 M305.728 135.600 C 305.728 137.030,305.801 137.615,305.889 136.900 C 305.978 136.185,305.978 135.015,305.889 134.300 C 305.801 133.585,305.728 134.170,305.728 135.600 M304.931 144.200 C 304.933 145.740,305.005 146.321,305.092 145.491 C 305.179 144.661,305.177 143.401,305.089 142.691 C 305.000 141.981,304.929 142.660,304.931 144.200 M260.200 145.200 C 260.046 146.110,260.004 146.938,260.107 147.040 C 260.210 147.143,260.413 146.477,260.560 145.560 C 260.707 144.643,260.748 143.815,260.653 143.720 C 260.558 143.624,260.354 144.290,260.200 145.200 M304.131 153.000 C 304.133 154.540,304.205 155.121,304.292 154.291 C 304.379 153.461,304.377 152.201,304.289 151.491 C 304.200 150.781,304.129 151.460,304.131 153.000 M259.467 155.467 C 259.320 155.613,259.218 156.288,259.241 156.967 L 259.282 158.200 259.610 156.803 C 259.953 155.347,259.917 155.016,259.467 155.467 M226.600 159.611 C 225.500 159.767,228.380 159.805,233.000 159.694 C 237.620 159.582,241.475 159.426,241.567 159.346 C 241.866 159.084,228.654 159.318,226.600 159.611 M165.300 160.298 C 167.225 160.371,170.375 160.371,172.300 160.298 C 174.225 160.225,172.650 160.165,168.800 160.165 C 164.950 160.165,163.375 160.225,165.300 160.298 M153.900 160.696 C 155.275 160.774,157.525 160.774,158.900 160.696 C 160.275 160.618,159.150 160.554,156.400 160.554 C 153.650 160.554,152.525 160.618,153.900 160.696 M96.661 161.100 C 96.559 161.265,98.393 161.350,100.738 161.289 C 107.337 161.118,107.934 160.935,102.124 160.864 C 99.222 160.829,96.763 160.935,96.661 161.100 M303.328 163.200 C 303.328 164.630,303.401 165.215,303.489 164.500 C 303.578 163.785,303.578 162.615,303.489 161.900 C 303.401 161.185,303.328 161.770,303.328 163.200 M96.524 167.400 C 96.526 168.720,96.601 169.212,96.690 168.493 C 96.779 167.774,96.777 166.694,96.686 166.093 C 96.595 165.492,96.522 166.080,96.524 167.400 M302.528 172.000 C 302.528 173.430,302.601 174.015,302.689 173.300 C 302.778 172.585,302.778 171.415,302.689 170.700 C 302.601 169.985,302.528 170.570,302.528 172.000 M97.320 174.800 C 97.320 176.010,97.395 176.505,97.487 175.900 C 97.578 175.295,97.578 174.305,97.487 173.700 C 97.395 173.095,97.320 173.590,97.320 174.800 M301.709 182.000 C 301.709 182.990,301.787 183.395,301.882 182.900 C 301.978 182.405,301.978 181.595,301.882 181.100 C 301.787 180.605,301.709 181.010,301.709 182.000 M98.120 183.600 C 98.120 184.810,98.195 185.305,98.287 184.700 C 98.378 184.095,98.378 183.105,98.287 182.500 C 98.195 181.895,98.120 182.390,98.120 183.600 M300.914 190.600 C 300.917 191.700,300.995 192.103,301.087 191.495 C 301.179 190.886,301.177 189.986,301.082 189.495 C 300.987 189.003,300.911 189.500,300.914 190.600 M98.920 191.200 C 98.920 192.410,98.995 192.905,99.087 192.300 C 99.178 191.695,99.178 190.705,99.087 190.100 C 98.995 189.495,98.920 189.990,98.920 191.200 M99.720 198.400 C 99.720 199.610,99.795 200.105,99.887 199.500 C 99.978 198.895,99.978 197.905,99.887 197.300 C 99.795 196.695,99.720 197.190,99.720 198.400 M300.114 199.400 C 300.117 200.500,300.195 200.903,300.287 200.295 C 300.379 199.686,300.377 198.786,300.282 198.295 C 300.187 197.803,300.111 198.300,300.114 199.400 M188.928 203.900 C 195.049 203.962,204.949 203.962,210.928 203.900 C 216.908 203.837,211.900 203.787,199.800 203.787 C 187.700 203.787,182.808 203.838,188.928 203.900 M103.111 204.293 C 104.051 204.378,105.491 204.377,106.311 204.291 C 107.130 204.205,106.360 204.136,104.600 204.137 C 102.840 204.139,102.170 204.209,103.111 204.293 M299.264 208.667 C 299.229 209.364,299.096 210.264,298.970 210.667 C 298.753 211.359,298.765 211.360,299.194 210.691 C 299.445 210.302,299.577 209.402,299.489 208.691 L 299.328 207.400 299.264 208.667 M254.649 209.415 C 254.512 209.773,254.418 210.456,254.441 210.933 C 254.467 211.481,254.603 211.286,254.810 210.403 C 255.160 208.916,255.065 208.333,254.649 209.415 M253.849 216.615 C 253.712 216.973,253.621 217.746,253.646 218.333 C 253.680 219.132,253.770 218.998,254.004 217.800 C 254.335 216.100,254.262 215.540,253.849 216.615 M298.454 217.200 C 298.419 217.750,298.296 218.650,298.183 219.200 L 297.977 220.200 298.407 219.215 C 298.643 218.674,298.765 217.774,298.678 217.215 L 298.520 216.200 298.454 217.200 M253.049 223.815 C 252.912 224.173,252.821 224.946,252.846 225.533 C 252.880 226.332,252.970 226.198,253.204 225.000 C 253.535 223.300,253.462 222.740,253.049 223.815 M297.654 226.200 C 297.619 226.640,297.489 227.450,297.367 228.000 C 297.175 228.863,297.207 228.903,297.598 228.290 C 297.847 227.899,297.977 227.089,297.886 226.490 C 297.778 225.779,297.697 225.679,297.654 226.200 M252.249 231.015 C 252.112 231.373,252.021 232.146,252.046 232.733 C 252.080 233.532,252.170 233.398,252.404 232.200 C 252.735 230.500,252.662 229.940,252.249 231.015 M148.250 233.200 C 148.575 235.441,148.802 235.760,148.794 233.967 C 148.791 233.215,148.608 232.330,148.388 232.000 C 148.109 231.581,148.067 231.942,148.250 233.200 M102.828 234.833 C 102.844 235.585,103.012 236.560,103.203 237.000 C 103.426 237.515,103.467 237.087,103.318 235.800 C 103.044 233.422,102.789 232.919,102.828 234.833 M296.854 235.000 C 296.819 235.440,296.689 236.250,296.567 236.800 C 296.375 237.663,296.407 237.703,296.798 237.090 C 297.047 236.699,297.177 235.889,297.086 235.290 C 296.978 234.579,296.897 234.479,296.854 235.000 M251.449 238.215 C 251.312 238.573,251.224 239.526,251.253 240.333 C 251.301 241.644,251.338 241.587,251.595 239.800 C 251.903 237.671,251.855 237.158,251.449 238.215 M149.082 241.800 C 149.209 242.900,149.377 243.875,149.456 243.967 C 149.755 244.314,149.528 241.364,149.197 240.600 C 148.974 240.085,148.933 240.513,149.082 241.800 M103.628 243.633 C 103.644 244.385,103.812 245.360,104.003 245.800 C 104.226 246.315,104.267 245.887,104.118 244.600 C 103.844 242.222,103.589 241.719,103.628 243.633 M296.054 243.800 C 296.019 244.240,295.889 245.050,295.767 245.600 C 295.575 246.463,295.607 246.503,295.998 245.890 C 296.247 245.499,296.377 244.689,296.286 244.090 C 296.178 243.379,296.097 243.279,296.054 243.800 M250.656 245.284 C 250.521 245.788,250.430 246.740,250.453 247.400 C 250.481 248.228,250.597 247.984,250.826 246.613 C 251.176 244.523,251.074 243.726,250.656 245.284 M150.114 252.200 C 150.117 253.300,150.195 253.703,150.287 253.095 C 150.379 252.486,150.377 251.586,150.282 251.095 C 150.187 250.603,150.111 251.100,150.114 252.200 M104.406 252.833 C 104.409 253.365,104.589 254.070,104.806 254.400 C 105.082 254.822,105.123 254.585,104.942 253.600 C 104.625 251.875,104.398 251.549,104.406 252.833 M295.254 252.867 C 295.225 253.234,295.084 253.864,294.941 254.267 C 294.741 254.833,294.795 254.896,295.175 254.546 C 295.446 254.297,295.587 253.667,295.488 253.146 C 295.390 252.626,295.284 252.500,295.254 252.867 M249.720 255.200 C 249.720 256.410,249.795 256.905,249.887 256.300 C 249.978 255.695,249.978 254.705,249.887 254.100 C 249.795 253.495,249.720 253.990,249.720 255.200 M150.693 259.800 C 150.813 261.120,150.976 262.275,151.055 262.367 C 151.351 262.707,151.131 258.970,150.810 258.200 C 150.608 257.717,150.562 258.351,150.693 259.800 M105.206 261.433 C 105.209 262.075,105.384 262.870,105.595 263.200 C 105.855 263.609,105.899 263.290,105.732 262.200 C 105.429 260.223,105.198 259.886,105.206 261.433 M248.909 262.000 C 248.909 262.990,248.987 263.395,249.082 262.900 C 249.178 262.405,249.178 261.595,249.082 261.100 C 248.987 260.605,248.909 261.010,248.909 262.000 M294.454 261.667 C 294.425 262.034,294.284 262.664,294.141 263.067 C 293.941 263.633,293.995 263.696,294.375 263.346 C 294.646 263.097,294.787 262.467,294.688 261.946 C 294.590 261.426,294.484 261.300,294.454 261.667 M152.833 264.544 C 152.925 264.623,153.540 264.808,154.200 264.956 C 155.076 265.152,155.238 265.115,154.800 264.818 C 154.260 264.453,152.432 264.198,152.833 264.544 M245.200 264.818 C 244.762 265.115,244.924 265.152,245.800 264.956 C 247.271 264.627,247.590 264.398,246.567 264.406 C 246.145 264.409,245.530 264.595,245.200 264.818 M106.006 270.233 C 106.009 270.875,106.184 271.670,106.395 272.000 C 106.655 272.409,106.699 272.090,106.532 271.000 C 106.229 269.023,105.998 268.686,106.006 270.233 M293.654 270.267 C 293.625 270.744,293.496 271.464,293.370 271.867 C 293.152 272.561,293.164 272.562,293.596 271.888 C 293.847 271.497,293.975 270.777,293.881 270.288 C 293.709 269.401,293.709 269.401,293.654 270.267 M106.800 279.710 C 106.800 280.283,106.987 280.868,107.216 281.010 C 107.489 281.179,107.538 280.877,107.360 280.134 C 106.992 278.601,106.800 278.456,106.800 279.710 M292.854 279.267 C 292.825 279.634,292.684 280.264,292.541 280.667 C 292.341 281.233,292.395 281.296,292.775 280.946 C 293.046 280.697,293.187 280.067,293.088 279.546 C 292.990 279.026,292.884 278.900,292.854 279.267 M107.600 288.510 C 107.600 289.083,107.787 289.668,108.016 289.810 C 108.289 289.979,108.338 289.677,108.160 288.934 C 107.792 287.401,107.600 287.256,107.600 288.510 M291.829 288.629 C 291.681 289.215,291.651 289.784,291.761 289.894 C 291.871 290.004,292.081 289.615,292.229 289.029 C 292.376 288.442,292.406 287.873,292.296 287.763 C 292.186 287.653,291.976 288.042,291.829 288.629 M108.400 297.400 C 108.400 297.950,108.555 298.400,108.745 298.400 C 108.934 298.400,109.003 297.950,108.898 297.400 C 108.793 296.850,108.638 296.400,108.553 296.400 C 108.469 296.400,108.400 296.850,108.400 297.400 M291.232 297.300 C 291.214 297.685,290.840 298.360,290.400 298.800 C 289.960 299.240,289.776 299.600,289.991 299.600 C 290.577 299.600,291.706 297.701,291.469 297.113 C 291.340 296.791,291.251 296.861,291.232 297.300 M127.233 304.144 C 127.325 304.223,127.940 304.408,128.600 304.556 C 129.476 304.752,129.638 304.715,129.200 304.418 C 128.660 304.053,126.832 303.798,127.233 304.144 M270.800 304.418 C 270.362 304.715,270.524 304.752,271.400 304.556 C 272.871 304.227,273.190 303.998,272.167 304.006 C 271.745 304.009,271.130 304.195,270.800 304.418 M130.033 304.944 C 130.125 305.023,130.740 305.208,131.400 305.356 C 132.276 305.552,132.438 305.515,132.000 305.218 C 131.460 304.853,129.632 304.598,130.033 304.944 M268.000 305.218 C 267.562 305.515,267.724 305.552,268.600 305.356 C 270.071 305.027,270.390 304.798,269.367 304.806 C 268.945 304.809,268.330 304.995,268.000 305.218 M132.833 305.744 C 132.925 305.823,133.540 306.008,134.200 306.156 C 135.076 306.352,135.238 306.315,134.800 306.018 C 134.260 305.653,132.432 305.398,132.833 305.744 M265.200 306.018 C 264.762 306.315,264.924 306.352,265.800 306.156 C 267.271 305.827,267.590 305.598,266.567 305.606 C 266.145 305.609,265.530 305.795,265.200 306.018 M218.800 318.800 C 217.976 319.064,217.941 319.126,218.600 319.154 C 219.040 319.173,219.670 319.013,220.000 318.800 C 220.701 318.347,220.214 318.347,218.800 318.800 M216.000 319.600 C 215.176 319.864,215.141 319.926,215.800 319.954 C 216.240 319.973,216.870 319.813,217.200 319.600 C 217.901 319.147,217.414 319.147,216.000 319.600 M192.033 322.144 C 192.125 322.223,192.740 322.408,193.400 322.556 C 194.276 322.752,194.438 322.715,194.000 322.418 C 193.460 322.053,191.632 321.798,192.033 322.144 M199.220 324.013 C 199.642 324.273,201.200 324.090,201.200 323.780 C 201.200 323.710,200.649 323.669,199.976 323.688 C 199.295 323.708,198.960 323.852,199.220 324.013 " stroke="none" fill="#38a1f4" fill-rule="evenodd"></path></g></svg>