<svg id="svg" version="1.1" xmlns="http://www.w3.org/2000/svg" xmlns:xlink="http://www.w3.org/1999/xlink" width="400" height="400" viewBox="0, 0, 400,400"><g id="svgg"><path id="path0" d="M296.400 182.252 C 265.975 186.084,248.066 206.776,250.012 235.847 C 251.646 260.258,264.412 274.730,296.200 288.208 C 303.381 291.252,305.602 292.214,308.400 293.488 C 325.927 301.471,330.764 306.071,331.488 315.443 C 332.431 327.665,322.168 335.445,305.200 335.372 C 289.981 335.306,278.870 328.861,269.909 314.900 C 268.539 312.766,269.151 312.636,262.591 316.449 C 256.203 320.161,254.949 320.886,253.000 322.000 C 252.230 322.440,250.970 323.160,250.200 323.600 C 249.430 324.040,248.194 324.743,247.453 325.163 C 246.713 325.583,244.955 326.618,243.548 327.463 C 242.141 328.308,240.497 329.255,239.895 329.568 C 238.445 330.319,238.847 331.720,241.646 335.662 C 242.061 336.246,242.400 336.829,242.400 336.957 C 242.400 337.086,242.660 337.508,242.978 337.895 C 243.295 338.283,244.416 339.759,245.468 341.175 C 249.270 346.293,256.104 352.521,262.312 356.523 C 263.836 357.506,264.652 357.986,267.445 359.546 C 273.274 362.801,281.990 365.597,291.400 367.230 C 300.129 368.745,315.538 368.527,324.200 366.766 C 328.611 365.869,332.870 364.666,335.500 363.574 C 335.995 363.368,336.805 363.039,337.300 362.842 C 338.565 362.340,343.961 359.699,345.400 358.879 C 349.191 356.717,355.835 350.969,358.204 347.800 C 358.862 346.920,359.622 345.965,359.894 345.677 C 360.934 344.578,363.288 340.214,364.953 336.300 C 369.059 326.650,369.822 312.396,366.854 300.800 C 362.346 283.188,349.164 270.823,322.400 259.100 C 321.630 258.762,319.960 258.017,318.688 257.443 C 317.417 256.869,316.280 256.400,316.163 256.400 C 316.046 256.400,314.836 255.884,313.475 255.254 C 312.114 254.623,309.830 253.607,308.400 252.997 C 293.216 246.512,287.445 241.314,286.427 233.202 C 284.546 218.227,299.661 209.466,315.600 216.293 C 317.069 216.923,322.799 221.099,322.802 221.542 C 322.803 221.684,323.306 222.340,323.920 223.000 C 324.962 224.120,326.822 226.778,327.843 228.607 C 328.606 229.974,329.310 229.724,334.860 226.115 C 337.833 224.182,341.417 221.880,342.825 221.000 C 345.237 219.493,355.438 212.902,356.851 211.938 C 357.642 211.399,356.595 209.511,352.339 203.800 C 343.938 192.528,333.265 185.834,319.400 183.143 C 315.496 182.385,300.082 181.788,296.400 182.252 M180.799 248.300 C 180.798 316.327,180.718 319.362,178.810 324.200 C 175.705 332.073,170.597 335.191,160.800 335.191 C 150.335 335.191,145.104 331.678,138.032 319.900 C 136.877 317.975,135.840 316.400,135.729 316.400 C 135.618 316.400,130.999 319.136,125.464 322.480 C 119.929 325.824,113.510 329.701,111.200 331.096 C 105.659 334.441,105.747 334.342,106.646 336.255 C 107.596 338.275,109.718 341.763,110.100 341.933 C 110.265 342.007,110.400 342.288,110.400 342.558 C 110.400 342.828,110.715 343.399,111.100 343.826 C 111.485 344.253,112.583 345.633,113.541 346.892 C 119.680 354.961,129.301 361.543,140.200 365.128 C 142.180 365.779,144.430 366.430,145.200 366.574 C 145.970 366.719,148.130 367.120,150.000 367.466 C 159.277 369.184,174.927 368.047,184.318 364.973 C 199.681 359.944,210.651 348.394,214.874 332.800 C 217.449 323.292,217.287 328.286,217.467 252.900 L 217.632 184.000 199.216 184.000 L 180.800 184.000 180.799 248.300 " stroke="none" fill="#050504" fill-rule="evenodd"></path><path id="path1" d="M0.000 200.000 L 0.000 400.000 200.000 400.000 L 400.000 400.000 400.000 200.000 L 400.000 0.000 200.000 0.000 L 0.000 0.000 0.000 200.000 M312.800 181.403 C 315.770 181.706,319.190 182.151,320.400 182.393 C 321.610 182.635,323.187 182.936,323.904 183.061 C 324.621 183.186,325.306 183.449,325.427 183.644 C 325.548 183.840,325.999 184.000,326.429 184.000 C 326.859 184.000,327.523 184.159,327.905 184.353 C 328.287 184.548,329.140 184.929,329.800 185.200 C 330.460 185.471,331.313 185.852,331.695 186.047 C 332.077 186.241,332.662 186.400,332.995 186.400 C 333.328 186.400,333.600 186.580,333.600 186.800 C 333.600 187.020,333.883 187.200,334.228 187.200 C 334.573 187.200,335.641 187.740,336.600 188.400 C 337.559 189.060,338.537 189.600,338.772 189.600 C 339.007 189.600,339.200 189.750,339.200 189.932 C 339.200 190.115,339.695 190.519,340.300 190.830 C 340.905 191.140,341.670 191.674,342.000 192.016 C 342.330 192.358,343.230 193.077,344.000 193.614 C 347.103 195.779,352.018 201.331,355.140 206.200 C 356.268 207.960,357.374 209.617,357.596 209.883 C 358.655 211.150,356.494 214.400,354.592 214.400 C 354.468 214.400,353.990 214.751,353.529 215.180 C 353.069 215.609,352.131 216.240,351.446 216.582 C 350.761 216.923,347.439 219.002,344.063 221.202 C 340.688 223.401,337.763 225.200,337.563 225.200 C 337.364 225.200,337.200 225.380,337.200 225.600 C 337.200 225.820,336.930 226.000,336.600 226.000 C 336.270 226.000,336.000 226.180,336.000 226.400 C 336.000 226.620,335.730 226.800,335.400 226.800 C 335.070 226.800,334.800 226.980,334.800 227.200 C 334.800 227.420,334.610 227.600,334.378 227.600 C 334.146 227.600,332.896 228.320,331.600 229.200 C 328.778 231.116,328.231 231.170,327.536 229.600 C 327.244 228.940,326.869 228.400,326.702 228.400 C 326.536 228.400,326.400 228.164,326.400 227.875 C 326.400 227.587,326.080 227.002,325.689 226.575 C 325.298 226.149,324.541 225.170,324.007 224.400 C 322.195 221.789,318.258 218.514,315.400 217.241 C 314.740 216.947,313.887 216.548,313.505 216.353 C 313.123 216.159,312.459 216.000,312.029 216.000 C 311.599 216.000,311.136 215.820,311.000 215.600 C 310.854 215.363,308.404 215.200,305.000 215.200 C 301.596 215.200,299.146 215.363,299.000 215.600 C 298.864 215.820,298.324 216.000,297.800 216.000 C 297.276 216.000,296.736 216.180,296.600 216.400 C 296.464 216.620,296.003 216.800,295.576 216.800 C 295.149 216.800,294.800 216.968,294.800 217.173 C 294.800 217.378,294.429 217.664,293.976 217.808 C 293.523 217.951,292.374 218.847,291.423 219.798 C 284.729 226.492,286.024 238.852,294.000 244.389 C 294.770 244.924,295.490 245.460,295.600 245.581 C 295.942 245.955,303.382 249.754,306.600 251.197 C 307.700 251.691,309.292 252.433,310.138 252.847 C 310.984 253.261,311.929 253.600,312.238 253.600 C 312.547 253.600,312.800 253.780,312.800 254.000 C 312.800 254.220,313.072 254.400,313.405 254.400 C 313.738 254.400,314.368 254.580,314.805 254.800 C 315.242 255.020,315.958 255.380,316.395 255.600 C 316.832 255.820,317.462 256.000,317.795 256.000 C 318.128 256.000,318.400 256.180,318.400 256.400 C 318.400 256.620,318.749 256.800,319.176 256.800 C 319.603 256.800,320.064 256.980,320.200 257.200 C 320.336 257.420,320.797 257.600,321.224 257.600 C 321.651 257.600,322.000 257.780,322.000 258.000 C 322.000 258.220,322.360 258.400,322.800 258.400 C 323.240 258.400,323.600 258.580,323.600 258.800 C 323.600 259.020,323.872 259.200,324.205 259.200 C 324.538 259.200,325.123 259.366,325.505 259.569 C 325.887 259.771,328.450 261.029,331.200 262.363 C 336.633 264.999,341.108 267.460,341.902 268.249 C 342.179 268.523,342.764 268.862,343.202 269.001 C 343.641 269.140,344.000 269.422,344.000 269.627 C 344.000 269.832,344.236 270.000,344.525 270.000 C 344.813 270.000,345.398 270.320,345.825 270.711 C 346.251 271.102,347.230 271.864,348.000 272.405 C 350.362 274.065,350.835 274.482,354.577 278.207 C 358.270 281.883,358.676 282.344,360.386 284.800 C 360.923 285.570,361.460 286.290,361.581 286.400 C 362.333 287.086,365.977 294.423,365.990 295.276 C 365.995 295.648,366.180 296.064,366.400 296.200 C 366.620 296.336,366.800 296.876,366.800 297.400 C 366.800 297.924,366.960 298.452,367.156 298.573 C 367.351 298.694,367.607 299.379,367.724 300.096 C 367.840 300.813,368.203 302.840,368.529 304.600 C 370.033 312.702,369.627 324.388,367.597 331.400 C 367.343 332.280,367.039 333.495,366.922 334.100 C 366.805 334.705,366.550 335.200,366.355 335.200 C 366.160 335.200,366.000 335.494,366.000 335.854 C 366.000 336.706,362.753 343.200,362.327 343.200 C 362.147 343.200,362.000 343.393,362.000 343.628 C 362.000 344.050,359.832 347.396,359.019 348.229 C 358.789 348.465,357.880 349.526,357.000 350.587 C 355.334 352.596,349.513 357.499,347.665 358.450 C 347.079 358.752,346.510 359.089,346.400 359.199 C 345.449 360.153,337.679 363.878,334.600 364.855 C 333.720 365.135,332.829 365.507,332.620 365.682 C 332.411 365.857,331.747 366.000,331.144 366.000 C 330.541 366.000,329.936 366.180,329.800 366.400 C 329.664 366.620,328.969 366.800,328.256 366.800 C 327.543 366.800,326.789 366.962,326.580 367.159 C 326.371 367.356,325.390 367.629,324.400 367.765 C 323.410 367.901,320.980 368.233,319.000 368.502 C 314.440 369.123,298.481 369.124,294.000 368.504 C 290.643 368.040,288.510 367.653,284.600 366.800 C 283.500 366.561,282.103 366.261,281.495 366.136 C 280.887 366.010,280.292 365.749,280.171 365.554 C 280.051 365.359,279.511 365.200,278.971 365.200 C 278.431 365.200,277.677 365.041,277.295 364.847 C 276.595 364.491,275.166 363.892,273.500 363.257 C 273.005 363.068,271.818 362.528,270.862 362.057 C 269.906 361.586,268.871 361.200,268.562 361.200 C 268.253 361.200,268.000 361.054,268.000 360.875 C 268.000 360.696,267.370 360.302,266.600 360.000 C 265.830 359.698,265.200 359.340,265.200 359.206 C 265.200 359.071,264.570 358.733,263.800 358.454 C 263.030 358.176,262.400 357.809,262.400 357.638 C 262.400 357.468,261.936 357.117,261.369 356.859 C 258.174 355.403,249.709 348.000,246.696 344.027 C 245.767 342.802,244.690 341.509,244.303 341.153 C 243.917 340.797,243.600 340.302,243.600 340.053 C 243.600 339.804,243.420 339.600,243.200 339.600 C 242.980 339.600,242.800 339.330,242.800 339.000 C 242.800 338.670,242.620 338.400,242.400 338.400 C 242.180 338.400,242.000 338.130,242.000 337.800 C 242.000 337.470,241.820 337.200,241.600 337.200 C 241.380 337.200,241.200 336.930,241.200 336.600 C 241.200 336.270,241.020 336.000,240.800 336.000 C 240.580 336.000,240.400 335.745,240.400 335.433 C 240.400 335.122,240.265 334.807,240.100 334.733 C 238.403 333.979,237.650 329.737,239.100 329.100 C 239.705 328.834,240.290 328.509,240.400 328.378 C 240.510 328.247,241.410 327.704,242.400 327.170 C 243.390 326.637,244.260 326.065,244.333 325.900 C 244.407 325.735,244.812 325.600,245.233 325.600 C 245.655 325.600,246.000 325.420,246.000 325.200 C 246.000 324.980,246.270 324.800,246.600 324.800 C 246.930 324.800,247.200 324.620,247.200 324.400 C 247.200 324.180,247.470 324.000,247.800 324.000 C 248.130 324.000,248.400 323.864,248.400 323.698 C 248.400 323.531,248.985 323.143,249.700 322.835 C 250.415 322.527,251.450 321.964,252.000 321.584 C 252.550 321.204,253.675 320.513,254.500 320.047 C 255.325 319.581,256.630 318.840,257.400 318.400 C 258.170 317.960,259.385 317.266,260.100 316.858 C 260.815 316.449,262.810 315.279,264.533 314.258 C 268.818 311.717,269.121 311.764,271.328 315.305 C 275.912 322.660,282.956 328.852,290.000 331.718 C 290.770 332.031,291.903 332.493,292.519 332.744 C 293.134 332.995,294.069 333.200,294.595 333.200 C 295.122 333.200,295.651 333.358,295.770 333.551 C 297.292 336.014,314.765 334.510,321.018 331.378 C 333.440 325.157,333.970 307.914,321.934 301.572 C 321.420 301.302,320.910 300.972,320.800 300.840 C 320.259 300.191,311.267 295.600,310.536 295.600 C 310.241 295.600,310.000 295.420,310.000 295.200 C 310.000 294.980,309.640 294.800,309.200 294.800 C 308.760 294.800,308.400 294.620,308.400 294.400 C 308.400 294.180,308.128 294.000,307.795 294.000 C 307.462 294.000,306.877 293.840,306.495 293.644 C 305.111 292.934,301.624 291.413,295.400 288.803 C 290.414 286.713,281.445 282.343,281.267 281.918 C 281.193 281.743,280.788 281.600,280.367 281.600 C 279.945 281.600,279.600 281.420,279.600 281.200 C 279.600 280.980,279.364 280.800,279.075 280.800 C 278.787 280.800,278.164 280.440,277.692 280.000 C 277.220 279.560,276.556 279.200,276.217 279.200 C 275.878 279.200,275.600 279.050,275.600 278.868 C 275.600 278.685,275.105 278.280,274.500 277.968 C 273.895 277.656,273.310 277.302,273.200 277.181 C 273.090 277.060,272.370 276.523,271.600 275.986 C 268.499 273.827,263.358 269.307,261.600 267.195 C 260.830 266.270,259.975 265.276,259.700 264.985 C 259.425 264.695,259.200 264.330,259.200 264.175 C 259.200 264.021,258.884 263.603,258.497 263.247 C 258.111 262.891,257.540 262.105,257.230 261.500 C 256.919 260.895,256.515 260.400,256.332 260.400 C 256.150 260.400,256.000 260.040,256.000 259.600 C 256.000 259.160,255.841 258.800,255.647 258.800 C 255.452 258.800,255.193 258.485,255.071 258.100 C 254.949 257.715,254.589 256.950,254.272 256.400 C 253.745 255.488,253.254 254.403,252.373 252.200 C 252.197 251.760,251.836 250.680,251.571 249.800 C 251.306 248.920,250.948 247.840,250.776 247.400 C 250.604 246.960,250.341 245.880,250.191 245.000 C 250.041 244.120,249.749 242.410,249.542 241.200 C 248.896 237.429,248.668 226.931,249.174 224.249 C 249.429 222.902,249.824 220.810,250.054 219.600 C 250.283 218.390,250.635 217.087,250.835 216.705 C 251.036 216.323,251.200 215.736,251.200 215.400 C 251.200 215.064,251.359 214.477,251.553 214.095 C 251.748 213.713,252.084 212.950,252.301 212.400 C 252.517 211.850,253.283 210.230,254.002 208.800 C 254.720 207.370,255.509 205.796,255.754 205.303 C 255.999 204.810,256.335 204.405,256.500 204.403 C 256.665 204.401,256.800 204.130,256.800 203.800 C 256.800 203.470,256.980 203.200,257.200 203.200 C 257.420 203.200,257.600 203.022,257.600 202.805 C 257.600 202.201,258.670 200.961,262.600 197.015 C 266.247 193.352,266.696 192.957,269.200 191.214 C 269.970 190.677,270.690 190.140,270.800 190.019 C 271.654 189.083,279.543 185.311,282.600 184.378 C 283.480 184.109,284.560 183.748,285.000 183.575 C 285.440 183.402,286.340 183.147,287.000 183.009 C 287.660 182.870,289.010 182.580,290.000 182.363 C 296.487 180.943,304.828 180.592,312.800 181.403 M218.174 252.200 C 218.155 302.677,218.024 321.746,217.681 323.800 C 217.424 325.340,217.102 327.410,216.966 328.400 C 216.830 329.390,216.556 330.371,216.359 330.580 C 216.162 330.789,216.000 331.316,216.000 331.752 C 216.000 332.506,215.491 334.351,214.745 336.300 C 213.864 338.600,213.613 339.176,212.351 341.800 C 211.610 343.340,210.868 344.660,210.702 344.733 C 210.536 344.807,210.400 345.040,210.400 345.251 C 210.400 346.791,203.316 355.178,199.800 357.802 C 198.920 358.458,198.110 359.087,198.000 359.198 C 197.890 359.310,197.305 359.656,196.700 359.968 C 196.095 360.280,195.600 360.685,195.600 360.868 C 195.600 361.050,195.255 361.200,194.833 361.200 C 194.412 361.200,194.007 361.336,193.933 361.502 C 193.806 361.790,189.306 364.058,187.200 364.896 C 186.650 365.114,185.887 365.452,185.505 365.647 C 185.123 365.841,184.459 366.000,184.029 366.000 C 183.599 366.000,183.148 366.160,183.027 366.356 C 182.906 366.551,182.221 366.812,181.504 366.934 C 180.787 367.056,179.300 367.356,178.200 367.600 C 169.653 369.501,154.378 369.501,145.800 367.599 C 144.700 367.355,143.213 367.056,142.496 366.934 C 141.779 366.812,141.094 366.551,140.973 366.356 C 140.852 366.160,140.401 366.000,139.971 366.000 C 139.541 366.000,138.877 365.841,138.495 365.647 C 138.113 365.452,137.350 365.116,136.800 364.900 C 136.250 364.684,135.350 364.318,134.800 364.087 C 134.250 363.856,133.215 363.428,132.500 363.136 C 131.785 362.844,131.200 362.469,131.200 362.302 C 131.200 362.136,130.840 362.000,130.400 362.000 C 129.960 362.000,129.600 361.820,129.600 361.600 C 129.600 361.380,129.364 361.200,129.075 361.200 C 128.787 361.200,128.164 360.840,127.692 360.400 C 127.220 359.960,126.556 359.600,126.217 359.600 C 125.878 359.600,125.600 359.459,125.600 359.286 C 125.600 359.114,125.105 358.680,124.500 358.321 C 122.063 356.879,117.265 352.586,114.597 349.460 C 113.499 348.173,112.411 346.913,112.181 346.660 C 111.290 345.682,109.200 342.435,109.200 342.028 C 109.200 341.793,109.020 341.600,108.800 341.600 C 108.580 341.600,108.400 341.364,108.400 341.075 C 108.400 340.787,108.040 340.164,107.600 339.692 C 107.160 339.220,106.800 338.556,106.800 338.217 C 106.800 337.878,106.665 337.599,106.500 337.597 C 106.060 337.592,105.200 335.581,105.200 334.557 C 105.200 333.753,112.487 328.800,113.668 328.800 C 113.851 328.800,114.000 328.654,114.000 328.475 C 114.000 328.296,114.630 327.902,115.400 327.600 C 116.170 327.298,116.800 326.904,116.800 326.725 C 116.800 326.546,117.070 326.400,117.400 326.400 C 117.730 326.400,118.000 326.220,118.000 326.000 C 118.000 325.780,118.270 325.600,118.600 325.600 C 118.930 325.600,119.200 325.441,119.200 325.247 C 119.200 325.052,119.515 324.793,119.900 324.671 C 120.585 324.454,122.804 323.196,123.200 322.800 C 123.310 322.690,123.805 322.375,124.300 322.100 C 124.795 321.825,125.605 321.375,126.100 321.100 C 126.595 320.825,127.090 320.510,127.200 320.400 C 127.310 320.290,127.850 319.942,128.400 319.627 C 128.950 319.312,130.797 318.194,132.505 317.142 C 136.308 314.800,136.034 314.678,139.200 320.126 C 142.427 325.679,147.341 330.859,150.800 332.354 C 152.010 332.877,153.430 333.505,153.955 333.749 C 158.783 335.997,172.540 333.096,174.909 329.331 C 175.079 329.060,175.440 328.606,175.711 328.320 C 176.260 327.741,177.690 324.847,178.339 323.000 C 179.485 319.740,179.598 313.116,179.599 249.167 C 179.599 213.178,179.722 183.612,179.871 183.463 C 180.019 183.314,188.704 183.239,199.171 183.296 L 218.200 183.400 218.174 252.200 " stroke="none" fill="#fbdb04" fill-rule="evenodd"></path><path id="path2" d="M300.105 181.487 C 300.714 181.579,301.614 181.577,302.105 181.482 C 302.597 181.387,302.100 181.311,301.000 181.314 C 299.900 181.317,299.497 181.395,300.105 181.487 M306.707 181.490 C 307.426 181.579,308.506 181.577,309.107 181.486 C 309.708 181.395,309.120 181.322,307.800 181.324 C 306.480 181.326,305.988 181.401,306.707 181.490 M180.195 248.600 C 180.195 284.240,180.242 298.761,180.300 280.868 C 180.358 262.976,180.358 233.816,180.300 216.068 C 180.242 198.321,180.195 212.960,180.195 248.600 M249.293 236.000 C 249.293 236.770,249.375 237.085,249.476 236.700 C 249.576 236.315,249.576 235.685,249.476 235.300 C 249.375 234.915,249.293 235.230,249.293 236.000 M290.000 241.325 C 290.000 241.394,290.585 241.979,291.300 242.625 L 292.600 243.800 291.425 242.500 C 290.330 241.288,290.000 241.016,290.000 241.325 M354.200 278.400 C 355.283 279.500,356.260 280.400,356.370 280.400 C 356.480 280.400,355.683 279.500,354.600 278.400 C 353.517 277.300,352.540 276.400,352.430 276.400 C 352.320 276.400,353.117 277.300,354.200 278.400 M368.928 316.800 C 368.928 318.230,369.001 318.815,369.089 318.100 C 369.178 317.385,369.178 316.215,369.089 315.500 C 369.001 314.785,368.928 315.370,368.928 316.800 M159.100 335.089 C 159.815 335.178,160.985 335.178,161.700 335.089 C 162.415 335.001,161.830 334.928,160.400 334.928 C 158.970 334.928,158.385 335.001,159.100 335.089 M250.000 347.325 C 250.000 347.394,250.585 347.979,251.300 348.625 L 252.600 349.800 251.425 348.500 C 250.330 347.288,250.000 347.016,250.000 347.325 " stroke="none" fill="#a89704" fill-rule="evenodd"></path><path id="path3" d="M301.682 181.896 C 303.158 181.973,305.678 181.973,307.282 181.897 C 308.887 181.821,307.680 181.758,304.600 181.758 C 301.520 181.757,300.207 181.819,301.682 181.896 M295.100 182.282 C 295.595 182.378,296.405 182.378,296.900 182.282 C 297.395 182.187,296.990 182.109,296.000 182.109 C 295.010 182.109,294.605 182.187,295.100 182.282 M312.905 182.287 C 313.514 182.379,314.414 182.377,314.905 182.282 C 315.397 182.187,314.900 182.111,313.800 182.114 C 312.700 182.117,312.297 182.195,312.905 182.287 M180.586 184.096 C 180.481 184.373,180.441 213.760,180.499 249.400 L 180.602 314.200 180.701 249.100 L 180.800 184.000 199.199 184.000 L 217.598 184.000 217.701 250.000 L 217.804 316.000 217.802 249.900 L 217.800 183.800 199.289 183.696 C 184.693 183.614,180.737 183.699,180.586 184.096 M342.845 193.700 C 342.944 193.755,344.639 195.330,346.612 197.200 L 350.200 200.600 346.809 197.100 C 344.944 195.175,343.249 193.600,343.042 193.600 C 342.836 193.600,342.747 193.645,342.845 193.700 M263.188 197.100 L 260.600 199.800 263.390 197.200 C 264.924 195.770,266.259 194.555,266.356 194.500 C 266.454 194.445,266.363 194.400,266.155 194.400 C 265.947 194.400,264.612 195.615,263.188 197.100 M350.406 201.033 C 350.409 201.235,351.056 202.120,351.844 203.000 L 353.276 204.600 351.961 202.800 C 351.237 201.810,350.590 200.925,350.523 200.833 C 350.455 200.742,350.403 200.832,350.406 201.033 M355.949 209.000 C 356.165 209.440,356.634 210.160,356.993 210.600 L 357.644 211.400 357.251 210.600 C 357.035 210.160,356.566 209.440,356.207 209.000 L 355.556 208.200 355.949 209.000 M354.500 213.426 C 353.565 213.987,352.800 214.540,352.800 214.655 C 352.800 214.871,355.499 213.338,356.180 212.736 C 356.867 212.128,356.227 212.391,354.500 213.426 M302.900 214.294 C 303.945 214.376,305.655 214.376,306.700 214.294 C 307.745 214.212,306.890 214.144,304.800 214.144 C 302.710 214.144,301.855 214.212,302.900 214.294 M316.200 216.873 C 316.640 217.120,317.495 217.667,318.100 218.088 C 318.705 218.510,319.200 218.759,319.200 218.642 C 319.200 218.321,316.274 216.398,315.807 216.412 C 315.583 216.419,315.760 216.626,316.200 216.873 M290.551 219.300 C 290.117 219.795,289.591 220.478,289.381 220.819 C 289.171 221.159,289.324 221.069,289.719 220.619 C 290.115 220.168,290.810 219.485,291.264 219.100 C 291.717 218.715,291.920 218.400,291.714 218.400 C 291.508 218.400,290.985 218.805,290.551 219.300 M319.964 219.335 C 320.549 220.063,322.800 221.777,322.800 221.494 C 322.800 221.406,322.035 220.726,321.100 219.983 C 320.165 219.240,319.654 218.948,319.964 219.335 M344.900 219.646 C 343.537 220.519,343.095 221.106,344.300 220.443 C 345.218 219.939,346.656 218.827,346.400 218.819 C 346.290 218.816,345.615 219.188,344.900 219.646 M338.193 223.856 C 336.152 225.209,335.432 225.923,337.026 225.014 C 338.430 224.214,340.301 222.822,339.993 222.809 C 339.879 222.804,339.069 223.275,338.193 223.856 M325.427 225.400 C 326.800 227.200,327.068 227.203,325.904 225.405 C 325.407 224.638,324.856 224.008,324.680 224.005 C 324.503 224.002,324.840 224.630,325.427 225.400 M249.709 227.200 C 249.709 228.190,249.787 228.595,249.882 228.100 C 249.978 227.605,249.978 226.795,249.882 226.300 C 249.787 225.805,249.709 226.210,249.709 227.200 M329.876 229.246 C 329.477 229.477,328.883 229.564,328.555 229.438 C 328.218 229.309,328.065 229.381,328.203 229.605 C 328.551 230.167,329.323 230.094,330.224 229.413 C 331.126 228.730,330.926 228.634,329.876 229.246 M249.728 234.800 C 249.728 236.230,249.801 236.815,249.889 236.100 C 249.978 235.385,249.978 234.215,249.889 233.500 C 249.801 232.785,249.728 233.370,249.728 234.800 M286.493 233.600 C 286.493 234.370,286.575 234.685,286.676 234.300 C 286.776 233.915,286.776 233.285,286.676 232.900 C 286.575 232.515,286.493 232.830,286.493 233.600 M250.028 240.633 C 250.044 241.275,250.216 242.160,250.410 242.600 C 250.647 243.134,250.686 242.802,250.527 241.600 C 250.246 239.480,249.988 238.980,250.028 240.633 M290.800 242.600 C 291.546 243.370,292.247 244.000,292.357 244.000 C 292.467 244.000,291.946 243.370,291.200 242.600 C 290.454 241.830,289.753 241.200,289.643 241.200 C 289.533 241.200,290.054 241.830,290.800 242.600 M334.800 264.979 C 334.800 265.089,335.340 265.459,336.000 265.800 C 336.660 266.141,337.200 266.331,337.200 266.221 C 337.200 266.111,336.660 265.741,336.000 265.400 C 335.340 265.059,334.800 264.869,334.800 264.979 M337.600 266.579 C 337.600 266.689,338.140 267.059,338.800 267.400 C 339.460 267.741,340.000 267.931,340.000 267.821 C 340.000 267.711,339.460 267.341,338.800 267.000 C 338.140 266.659,337.600 266.469,337.600 266.579 M263.800 268.800 C 264.883 269.900,265.860 270.800,265.970 270.800 C 266.080 270.800,265.283 269.900,264.200 268.800 C 263.117 267.700,262.140 266.800,262.030 266.800 C 261.920 266.800,262.717 267.700,263.800 268.800 M269.200 273.325 C 269.200 273.424,269.861 274.009,270.668 274.625 C 271.476 275.241,272.011 275.541,271.856 275.291 C 271.540 274.779,269.200 273.047,269.200 273.325 M354.200 278.800 C 355.283 279.900,356.260 280.800,356.370 280.800 C 356.480 280.800,355.683 279.900,354.600 278.800 C 353.517 277.700,352.540 276.800,352.430 276.800 C 352.320 276.800,353.117 277.700,354.200 278.800 M357.601 282.600 C 358.151 283.260,358.645 283.875,358.700 283.967 C 358.755 284.058,358.888 284.045,358.996 283.938 C 359.104 283.830,358.609 283.215,357.897 282.571 L 356.603 281.400 357.601 282.600 M296.400 288.600 C 296.950 288.914,297.580 289.172,297.800 289.172 C 298.020 289.172,297.750 288.914,297.200 288.600 C 296.650 288.286,296.020 288.028,295.800 288.028 C 295.580 288.028,295.850 288.286,296.400 288.600 M366.456 299.200 C 366.456 299.530,366.611 300.160,366.800 300.600 C 367.017 301.104,367.144 301.178,367.144 300.800 C 367.144 300.470,366.989 299.840,366.800 299.400 C 366.583 298.896,366.456 298.822,366.456 299.200 M368.291 309.400 C 368.411 310.940,368.575 312.275,368.655 312.367 C 368.922 312.673,368.709 309.016,368.389 307.800 C 368.198 307.072,368.159 307.702,368.291 309.400 M267.376 313.422 C 266.635 314.016,266.642 314.024,267.526 313.594 C 268.237 313.249,268.607 313.267,269.126 313.672 C 269.731 314.146,269.744 314.129,269.251 313.500 C 268.578 312.642,268.362 312.633,267.376 313.422 M331.334 316.800 C 331.334 318.450,331.405 319.125,331.491 318.300 C 331.578 317.475,331.578 316.125,331.491 315.300 C 331.405 314.475,331.334 315.150,331.334 316.800 M217.314 318.200 C 217.317 319.300,217.395 319.703,217.487 319.095 C 217.579 318.486,217.577 317.586,217.482 317.095 C 217.387 316.603,217.311 317.100,217.314 318.200 M179.693 319.600 C 179.693 320.370,179.775 320.685,179.876 320.300 C 179.976 319.915,179.976 319.285,179.876 318.900 C 179.775 318.515,179.693 318.830,179.693 319.600 M273.154 319.536 C 273.599 320.160,274.279 320.925,274.665 321.236 C 275.052 321.546,274.760 321.035,274.017 320.100 C 272.491 318.180,271.925 317.810,273.154 319.536 M129.600 319.636 C 128.936 320.179,128.869 320.315,129.400 320.040 C 130.705 319.366,131.428 318.812,131.000 318.815 C 130.780 318.817,130.150 319.186,129.600 319.636 M137.949 319.800 C 138.165 320.240,138.634 320.960,138.993 321.400 L 139.644 322.200 139.251 321.400 C 139.035 320.960,138.566 320.240,138.207 319.800 L 137.556 319.000 137.949 319.800 M368.246 322.646 C 368.100 323.893,368.059 324.993,368.157 325.090 C 368.254 325.188,368.461 324.254,368.615 323.015 C 368.770 321.777,368.810 320.677,368.705 320.571 C 368.599 320.466,368.393 321.399,368.246 322.646 M125.900 321.829 C 124.405 322.640,124.496 322.978,126.000 322.200 C 126.660 321.859,127.200 321.494,127.200 321.390 C 127.200 321.132,127.157 321.147,125.900 321.829 M121.900 324.229 C 120.405 325.040,120.496 325.378,122.000 324.600 C 122.660 324.259,123.200 323.894,123.200 323.790 C 123.200 323.532,123.157 323.547,121.900 324.229 M141.942 325.800 C 143.391 327.857,143.986 328.548,144.155 328.371 C 144.245 328.277,143.594 327.390,142.708 326.400 C 141.822 325.410,141.478 325.140,141.942 325.800 M175.999 328.900 C 175.410 329.704,175.313 329.984,175.745 329.633 C 176.401 329.100,177.393 327.600,177.089 327.600 C 177.013 327.600,176.522 328.185,175.999 328.900 M241.400 328.400 C 240.740 328.837,240.380 329.192,240.600 329.188 C 241.001 329.182,243.176 327.623,242.800 327.612 C 242.690 327.608,242.060 327.963,241.400 328.400 M282.073 328.226 C 282.443 328.652,283.343 329.341,284.073 329.757 C 285.639 330.650,285.226 330.207,283.000 328.604 C 282.069 327.934,281.682 327.776,282.073 328.226 M324.955 329.635 C 323.031 331.163,322.773 331.436,323.800 330.860 C 324.813 330.291,327.081 328.405,326.755 328.402 C 326.620 328.401,325.810 328.956,324.955 329.635 M144.435 328.900 C 144.528 328.955,145.233 329.540,146.002 330.200 L 147.400 331.400 146.225 330.100 C 145.579 329.385,144.874 328.800,144.658 328.800 C 144.443 328.800,144.343 328.845,144.435 328.900 M239.100 329.632 C 238.333 330.079,238.172 331.012,238.795 331.397 C 239.025 331.539,239.088 331.373,238.945 331.002 C 238.799 330.620,239.003 330.132,239.450 329.794 C 240.321 329.134,240.117 329.040,239.100 329.632 M109.700 331.646 C 108.337 332.519,107.895 333.106,109.100 332.443 C 110.018 331.939,111.456 330.827,111.200 330.819 C 111.090 330.816,110.415 331.188,109.700 331.646 M172.411 332.220 C 171.647 332.759,171.197 333.199,171.411 333.198 C 171.625 333.197,172.340 332.753,173.000 332.212 C 174.541 330.949,174.205 330.953,172.411 332.220 M106.300 333.632 C 105.501 334.098,105.380 335.017,106.062 335.438 C 106.356 335.620,106.415 335.547,106.223 335.237 C 106.053 334.963,106.229 334.410,106.623 333.975 C 107.405 333.110,107.331 333.031,106.300 333.632 M165.200 334.800 C 164.408 335.054,164.367 335.120,165.000 335.120 C 165.440 335.120,166.250 334.976,166.800 334.800 C 167.592 334.546,167.633 334.480,167.000 334.480 C 166.560 334.480,165.750 334.624,165.200 334.800 M296.800 334.800 C 297.350 334.976,298.160 335.120,298.600 335.120 C 299.233 335.120,299.192 335.054,298.400 334.800 C 297.850 334.624,297.040 334.480,296.600 334.480 C 295.967 334.480,296.008 334.546,296.800 334.800 M303.715 335.496 C 304.988 335.576,306.968 335.575,308.115 335.494 C 309.262 335.414,308.220 335.349,305.800 335.350 C 303.380 335.351,302.442 335.416,303.715 335.496 M242.802 337.833 C 242.803 338.035,243.268 338.740,243.835 339.400 L 244.866 340.600 243.963 339.200 C 242.804 337.404,242.800 337.399,242.802 337.833 M108.600 340.400 C 108.941 341.060,109.311 341.600,109.421 341.600 C 109.531 341.600,109.341 341.060,109.000 340.400 C 108.659 339.740,108.289 339.200,108.179 339.200 C 108.069 339.200,108.259 339.740,108.600 340.400 M245.951 342.338 C 246.621 343.185,247.487 344.130,247.874 344.438 C 248.261 344.747,247.790 344.055,246.826 342.900 C 244.806 340.478,244.138 340.049,245.951 342.338 M249.600 346.366 C 249.600 346.726,252.754 349.798,252.894 349.574 C 252.953 349.478,252.236 348.656,251.301 347.747 C 250.365 346.838,249.600 346.216,249.600 346.366 M117.200 351.400 C 118.617 352.830,119.867 354.000,119.977 354.000 C 120.087 354.000,119.017 352.830,117.600 351.400 C 116.183 349.970,114.933 348.800,114.823 348.800 C 114.713 348.800,115.783 349.970,117.200 351.400 M203.400 353.034 C 201.200 355.329,199.494 357.206,199.609 357.204 C 199.837 357.200,205.772 351.156,206.978 349.700 C 208.543 347.812,207.255 349.012,203.400 353.034 M255.046 351.477 C 255.951 352.315,257.571 353.597,258.646 354.326 C 260.761 355.761,259.933 355.038,255.614 351.677 C 253.508 350.039,253.481 350.029,255.046 351.477 M353.375 352.841 C 352.729 353.523,351.075 354.889,349.700 355.876 C 348.325 356.863,347.200 357.756,347.200 357.861 C 347.200 358.264,351.921 354.714,353.403 353.197 C 354.261 352.319,354.870 351.600,354.756 351.600 C 354.643 351.600,354.021 352.158,353.375 352.841 M261.574 356.324 C 262.109 356.759,263.099 357.419,263.774 357.791 L 265.000 358.467 264.026 357.676 C 263.491 357.241,262.501 356.581,261.826 356.209 L 260.600 355.533 261.574 356.324 M283.800 366.000 C 284.240 366.189,284.870 366.344,285.200 366.344 C 285.578 366.344,285.504 366.217,285.000 366.000 C 284.560 365.811,283.930 365.656,283.600 365.656 C 283.222 365.656,283.296 365.783,283.800 366.000 M145.000 366.800 C 145.440 366.989,146.160 367.138,146.600 367.132 C 147.243 367.123,147.204 367.057,146.400 366.800 C 145.032 366.362,143.981 366.362,145.000 366.800 M287.400 366.781 C 288.168 367.129,290.310 367.356,289.967 367.053 C 289.875 366.972,289.080 366.796,288.200 366.662 C 287.085 366.493,286.842 366.529,287.400 366.781 M324.000 366.800 C 323.196 367.057,323.157 367.123,323.800 367.132 C 324.240 367.138,324.960 366.989,325.400 366.800 C 326.419 366.362,325.368 366.362,324.000 366.800 M149.200 367.600 C 149.750 367.776,150.650 367.917,151.200 367.913 C 152.098 367.906,152.078 367.874,151.000 367.600 C 149.308 367.169,147.856 367.169,149.200 367.600 M172.800 367.600 C 171.443 367.886,171.437 367.895,172.600 367.907 C 173.260 367.915,174.250 367.776,174.800 367.600 C 176.112 367.180,174.796 367.180,172.800 367.600 M292.000 367.580 C 292.999 367.920,295.482 368.132,295.167 367.851 C 295.075 367.769,294.100 367.599,293.000 367.472 C 291.651 367.316,291.326 367.351,292.000 367.580 M318.100 367.876 C 318.485 367.976,319.115 367.976,319.500 367.876 C 319.885 367.775,319.570 367.693,318.800 367.693 C 318.030 367.693,317.715 367.775,318.100 367.876 M155.300 368.287 C 155.905 368.378,156.895 368.378,157.500 368.287 C 158.105 368.195,157.610 368.120,156.400 368.120 C 155.190 368.120,154.695 368.195,155.300 368.287 M165.907 368.290 C 166.626 368.379,167.706 368.377,168.307 368.286 C 168.908 368.195,168.320 368.122,167.000 368.124 C 165.680 368.126,165.188 368.201,165.907 368.290 M298.300 368.282 C 298.795 368.378,299.605 368.378,300.100 368.282 C 300.595 368.187,300.190 368.109,299.200 368.109 C 298.210 368.109,297.805 368.187,298.300 368.282 M312.700 368.282 C 313.195 368.378,314.005 368.378,314.500 368.282 C 314.995 368.187,314.590 368.109,313.600 368.109 C 312.610 368.109,312.205 368.187,312.700 368.282 M160.100 368.691 C 160.925 368.778,162.275 368.778,163.100 368.691 C 163.925 368.605,163.250 368.534,161.600 368.534 C 159.950 368.534,159.275 368.605,160.100 368.691 M303.700 368.697 C 305.185 368.774,307.615 368.774,309.100 368.697 C 310.585 368.620,309.370 368.557,306.400 368.557 C 303.430 368.557,302.215 368.620,303.700 368.697 " stroke="none" fill="#746404" fill-rule="evenodd"></path><path id="path4" d="M303.505 181.483 C 304.002 181.579,304.722 181.575,305.105 181.475 C 305.487 181.375,305.080 181.296,304.200 181.301 C 303.320 181.305,303.007 181.387,303.505 181.483 M346.000 196.125 C 346.000 196.194,346.585 196.779,347.300 197.425 L 348.600 198.600 347.425 197.300 C 346.330 196.088,346.000 195.816,346.000 196.125 M249.344 231.200 C 249.344 233.290,249.412 234.145,249.494 233.100 C 249.576 232.055,249.576 230.345,249.494 229.300 C 249.412 228.255,249.344 229.110,249.344 231.200 M286.514 230.600 C 286.517 231.700,286.595 232.103,286.687 231.495 C 286.779 230.886,286.777 229.986,286.682 229.495 C 286.587 229.003,286.511 229.500,286.514 230.600 M180.093 314.400 C 180.093 315.170,180.175 315.485,180.276 315.100 C 180.376 314.715,180.376 314.085,180.276 313.700 C 180.175 313.315,180.093 313.630,180.093 314.400 M277.200 323.800 C 278.395 325.010,279.463 326.000,279.573 326.000 C 279.683 326.000,278.795 325.010,277.600 323.800 C 276.405 322.590,275.337 321.600,275.227 321.600 C 275.117 321.600,276.005 322.590,277.200 323.800 M202.800 354.200 C 201.828 355.190,201.123 356.000,201.233 356.000 C 201.343 356.000,202.228 355.190,203.200 354.200 C 204.172 353.210,204.877 352.400,204.767 352.400 C 204.657 352.400,203.772 353.210,202.800 354.200 M156.705 368.683 C 157.202 368.779,157.922 368.775,158.305 368.675 C 158.687 368.575,158.280 368.496,157.400 368.501 C 156.520 368.505,156.207 368.587,156.705 368.683 M165.100 368.682 C 165.595 368.778,166.405 368.778,166.900 368.682 C 167.395 368.587,166.990 368.509,166.000 368.509 C 165.010 368.509,164.605 368.587,165.100 368.682 M312.100 368.676 C 312.485 368.776,313.115 368.776,313.500 368.676 C 313.885 368.575,313.570 368.493,312.800 368.493 C 312.030 368.493,311.715 368.575,312.100 368.676 " stroke="none" fill="#7c6c04" fill-rule="evenodd"></path><path id="path5" d="M218.195 250.200 C 218.195 286.720,218.242 301.719,218.300 283.532 C 218.358 265.344,218.358 235.464,218.300 217.132 C 218.242 198.799,218.195 213.680,218.195 250.200 M179.795 249.200 C 179.795 284.950,179.842 299.575,179.900 281.700 C 179.958 263.825,179.958 234.575,179.900 216.700 C 179.842 198.825,179.795 213.450,179.795 249.200 M304.311 335.093 C 305.251 335.178,306.691 335.177,307.511 335.091 C 308.330 335.005,307.560 334.936,305.800 334.937 C 304.040 334.939,303.370 335.009,304.311 335.093 M117.183 352.100 C 118.841 353.866,119.200 354.184,119.200 353.883 C 119.200 353.819,118.345 352.964,117.300 351.983 L 115.400 350.200 117.183 352.100 " stroke="none" fill="#cdb304" fill-rule="evenodd"></path><path id="path6" d="M189.700 183.500 C 194.705 183.563,202.895 183.563,207.900 183.500 C 212.905 183.436,208.810 183.384,198.800 183.384 C 188.790 183.384,184.695 183.436,189.700 183.500 M303.700 214.676 C 304.085 214.776,304.715 214.776,305.100 214.676 C 305.485 214.575,305.170 214.493,304.400 214.493 C 303.630 214.493,303.315 214.575,303.700 214.676 M324.800 303.325 C 324.800 303.394,325.385 303.979,326.100 304.625 L 327.400 305.800 326.225 304.500 C 325.130 303.288,324.800 303.016,324.800 303.325 " stroke="none" fill="#bca404" fill-rule="evenodd"></path><path id="path7" d="M302.713 181.095 C 303.876 181.176,305.676 181.176,306.713 181.093 C 307.751 181.011,306.800 180.945,304.600 180.946 C 302.400 180.947,301.551 181.014,302.713 181.095 M303.300 215.087 C 303.905 215.178,304.895 215.178,305.500 215.087 C 306.105 214.995,305.610 214.920,304.400 214.920 C 303.190 214.920,302.695 214.995,303.300 215.087 M248.920 227.200 C 248.920 228.410,248.995 228.905,249.087 228.300 C 249.178 227.695,249.178 226.705,249.087 226.100 C 248.995 225.495,248.920 225.990,248.920 227.200 M248.931 235.000 C 248.933 236.540,249.005 237.121,249.092 236.291 C 249.179 235.461,249.177 234.201,249.089 233.491 C 249.000 232.781,248.929 233.460,248.931 235.000 M263.800 269.600 C 264.659 270.480,265.452 271.200,265.562 271.200 C 265.672 271.200,265.059 270.480,264.200 269.600 C 263.341 268.720,262.548 268.000,262.438 268.000 C 262.328 268.000,262.941 268.720,263.800 269.600 M179.301 317.400 C 179.305 318.280,179.387 318.593,179.483 318.095 C 179.579 317.598,179.575 316.878,179.475 316.495 C 179.375 316.113,179.296 316.520,179.301 317.400 M218.093 319.600 C 218.093 320.370,218.175 320.685,218.276 320.300 C 218.376 319.915,218.376 319.285,218.276 318.900 C 218.175 318.515,218.093 318.830,218.093 319.600 M145.000 328.400 C 145.859 329.280,146.652 330.000,146.762 330.000 C 146.872 330.000,146.259 329.280,145.400 328.400 C 144.541 327.520,143.748 326.800,143.638 326.800 C 143.528 326.800,144.141 327.520,145.000 328.400 M159.300 334.687 C 159.905 334.778,160.895 334.778,161.500 334.687 C 162.105 334.595,161.610 334.520,160.400 334.520 C 159.190 334.520,158.695 334.595,159.300 334.687 M247.600 345.325 C 247.600 345.394,248.185 345.979,248.900 346.625 L 250.200 347.800 249.025 346.500 C 247.930 345.288,247.600 345.016,247.600 345.325 M251.800 349.600 C 252.659 350.480,253.452 351.200,253.562 351.200 C 253.672 351.200,253.059 350.480,252.200 349.600 C 251.341 348.720,250.548 348.000,250.438 348.000 C 250.328 348.000,250.941 348.720,251.800 349.600 M354.778 352.700 L 353.400 354.200 354.900 352.822 C 356.296 351.538,356.584 351.200,356.278 351.200 C 356.212 351.200,355.537 351.875,354.778 352.700 M155.507 369.090 C 156.226 369.179,157.306 369.177,157.907 369.086 C 158.508 368.995,157.920 368.922,156.600 368.924 C 155.280 368.926,154.788 369.001,155.507 369.090 M165.500 369.089 C 166.215 369.178,167.385 369.178,168.100 369.089 C 168.815 369.001,168.230 368.928,166.800 368.928 C 165.370 368.928,164.785 369.001,165.500 369.089 M298.505 369.087 C 299.114 369.179,300.014 369.177,300.505 369.082 C 300.997 368.987,300.500 368.911,299.400 368.914 C 298.300 368.917,297.897 368.995,298.505 369.087 M312.505 369.087 C 313.114 369.179,314.014 369.177,314.505 369.082 C 314.997 368.987,314.500 368.911,313.400 368.914 C 312.300 368.917,311.897 368.995,312.505 369.087 " stroke="none" fill="#e1c504" fill-rule="evenodd"></path><path id="path8" d="M248.909 230.800 C 248.909 231.790,248.987 232.195,249.082 231.700 C 249.178 231.205,249.178 230.395,249.082 229.900 C 248.987 229.405,248.909 229.810,248.909 230.800 M160.100 369.091 C 160.925 369.178,162.275 369.178,163.100 369.091 C 163.925 369.005,163.250 368.934,161.600 368.934 C 159.950 368.934,159.275 369.005,160.100 369.091 M302.291 369.089 C 303.001 369.177,304.261 369.179,305.091 369.092 C 305.921 369.005,305.340 368.933,303.800 368.931 C 302.260 368.929,301.581 369.000,302.291 369.089 M307.900 369.089 C 308.615 369.178,309.785 369.178,310.500 369.089 C 311.215 369.001,310.630 368.928,309.200 368.928 C 307.770 368.928,307.185 369.001,307.900 369.089 " stroke="none" fill="#dcbc04" fill-rule="evenodd"></path></g></svg>